<svg width="40" height="41" viewBox="0 0 40 41" fill="none" xmlns="http://www.w3.org/2000/svg">
<path d="M15.8 10.5604H24.2C27.4 10.5604 30 13.1604 30 16.3604V24.7604C30 26.2986 29.3889 27.7739 28.3012 28.8616C27.2135 29.9493 25.7383 30.5604 24.2 30.5604H15.8C12.6 30.5604 10 27.9604 10 24.7604V16.3604C10 14.8221 10.6111 13.3469 11.6988 12.2591C12.7865 11.1714 14.2617 10.5604 15.8 10.5604ZM15.6 12.5604C14.6452 12.5604 13.7295 12.9396 13.0544 13.6148C12.3793 14.2899 12 15.2056 12 16.1604V24.9604C12 26.9504 13.61 28.5604 15.6 28.5604H24.4C25.3548 28.5604 26.2705 28.1811 26.9456 27.5059C27.6207 26.8308 28 25.9151 28 24.9604V16.1604C28 14.1704 26.39 12.5604 24.4 12.5604H15.6ZM25.25 14.0604C25.5815 14.0604 25.8995 14.1921 26.1339 14.4265C26.3683 14.6609 26.5 14.9788 26.5 15.3104C26.5 15.6419 26.3683 15.9598 26.1339 16.1942C25.8995 16.4287 25.5815 16.5604 25.25 16.5604C24.9185 16.5604 24.6005 16.4287 24.3661 16.1942C24.1317 15.9598 24 15.6419 24 15.3104C24 14.9788 24.1317 14.6609 24.3661 14.4265C24.6005 14.1921 24.9185 14.0604 25.25 14.0604ZM20 15.5604C21.3261 15.5604 22.5979 16.0871 23.5355 17.0248C24.4732 17.9625 25 19.2343 25 20.5604C25 21.8864 24.4732 23.1582 23.5355 24.0959C22.5979 25.0336 21.3261 25.5604 20 25.5604C18.6739 25.5604 17.4021 25.0336 16.4645 24.0959C15.5268 23.1582 15 21.8864 15 20.5604C15 19.2343 15.5268 17.9625 16.4645 17.0248C17.4021 16.0871 18.6739 15.5604 20 15.5604ZM20 17.5604C19.2044 17.5604 18.4413 17.8764 17.8787 18.439C17.3161 19.0017 17 19.7647 17 20.5604C17 21.356 17.3161 22.1191 17.8787 22.6817C18.4413 23.2443 19.2044 23.5604 20 23.5604C20.7956 23.5604 21.5587 23.2443 22.1213 22.6817C22.6839 22.1191 23 21.356 23 20.5604C23 19.7647 22.6839 19.0017 22.1213 18.439C21.5587 17.8764 20.7956 17.5604 20 17.5604Z" fill="#083049"/>
<rect x="0.5" y="1.06036" width="39" height="39" rx="7.5" stroke="#083049"/>
</svg>
