<svg width="40" height="41" viewBox="0 0 40 41" fill="none" xmlns="http://www.w3.org/2000/svg">
<path d="M19.6623 13.4728L21.5373 11.5978C22.0248 11.1103 22.6036 10.7236 23.2406 10.4597C23.8776 10.1959 24.5603 10.0601 25.2498 10.0601C25.9393 10.0601 26.622 10.1959 27.259 10.4597C27.896 10.7236 28.4747 11.1103 28.9623 11.5978C29.4498 12.0854 29.8365 12.6641 30.1004 13.3011C30.3642 13.9381 30.5 14.6209 30.5 15.3103C30.5 15.9998 30.3642 16.6825 30.1004 17.3195C29.8365 17.9565 29.4498 18.5353 28.9623 19.0228L25.2123 22.7728C24.7248 23.2604 24.146 23.6472 23.509 23.911C22.872 24.1749 22.1893 24.3107 21.4998 24.3107C20.8103 24.3107 20.1276 24.1749 19.4906 23.911C18.8536 23.6472 18.2748 23.2604 17.7873 22.7728C17.5887 22.5594 17.4805 22.2774 17.4855 21.9859C17.4906 21.6944 17.6084 21.4162 17.8143 21.2098C18.0207 21.004 18.2989 20.8861 18.5903 20.8811C18.8818 20.8761 19.1639 20.9842 19.3773 21.1828C19.6557 21.4621 19.9865 21.6837 20.3507 21.8349C20.7149 21.9861 21.1054 22.0639 21.4998 22.0639C21.8941 22.0639 22.2846 21.9861 22.6488 21.8349C23.0131 21.6837 23.3439 21.4621 23.6223 21.1828L27.3723 17.4328C27.9078 16.8644 28.2008 16.1097 28.1892 15.3288C28.1776 14.548 27.8622 13.8023 27.31 13.2501C26.7578 12.6979 26.0121 12.3825 25.2313 12.3709C24.4504 12.3593 23.6957 12.6523 23.1273 13.1878L21.2523 15.0628C21.0389 15.2614 20.7568 15.3696 20.4653 15.3646C20.1739 15.3595 19.8957 15.2417 19.6893 15.0358C19.4834 14.8294 19.3656 14.5512 19.3605 14.2598C19.3555 13.9683 19.4637 13.6862 19.6623 13.4728ZM12.6273 27.9328C12.9057 28.2121 13.2365 28.4337 13.6007 28.5849C13.9649 28.7361 14.3554 28.8139 14.7498 28.8139C15.1441 28.8139 15.5346 28.7361 15.8988 28.5849C16.2631 28.4337 16.5939 28.2121 16.8723 27.9328L18.7473 26.0578C18.9607 25.8592 19.2427 25.7511 19.5342 25.7561C19.8257 25.7611 20.1039 25.879 20.3103 26.0848C20.5161 26.2912 20.634 26.5694 20.639 26.8609C20.644 27.1524 20.5359 27.4344 20.3373 27.6478L18.4623 29.5228C17.9747 30.0104 17.396 30.3971 16.759 30.6609C16.122 30.9248 15.4393 31.0606 14.7498 31.0606C13.3573 31.0606 12.0219 30.5074 11.0373 29.5228C10.0527 28.5382 9.49951 27.2028 9.49951 25.8103C9.49951 24.4179 10.0527 23.0824 11.0373 22.0978L14.7873 18.3478C15.2748 17.8603 15.8536 17.4735 16.4906 17.2096C17.1276 16.9458 17.8103 16.8099 18.4998 16.8099C19.1893 16.8099 19.872 16.9458 20.509 17.2096C21.146 17.4735 21.7248 17.8603 22.2123 18.3478C22.4109 18.5612 22.519 18.8433 22.514 19.1348C22.509 19.4262 22.3911 19.7044 22.1853 19.9108C21.9789 20.1167 21.7007 20.2345 21.4092 20.2396C21.1177 20.2446 20.8357 20.1364 20.6223 19.9378C20.3439 19.6585 20.0131 19.4369 19.6488 19.2857C19.2846 19.1345 18.8941 19.0567 18.4998 19.0567C18.1054 19.0567 17.7149 19.1345 17.3507 19.2857C16.9865 19.4369 16.6557 19.6585 16.3773 19.9378L12.6273 23.6878C12.348 23.9662 12.1264 24.297 11.9752 24.6613C11.824 25.0255 11.7462 25.416 11.7462 25.8103C11.7462 26.2047 11.824 26.5952 11.9752 26.9594C12.1264 27.3236 12.348 27.6544 12.6273 27.9328Z" fill="#083049"/>
<rect x="0.5" y="1.0603" width="39" height="39" rx="7.5" stroke="#083049"/>
</svg>
