<svg width="40" height="41" viewBox="0 0 40 41" fill="none" xmlns="http://www.w3.org/2000/svg">
<path d="M30.46 14.0604C29.69 14.4104 28.86 14.6404 28 14.7504C28.88 14.2204 29.56 13.3804 29.88 12.3704C29.05 12.8704 28.13 13.2204 27.16 13.4204C26.37 12.5604 25.26 12.0604 24 12.0604C21.65 12.0604 19.73 13.9804 19.73 16.3504C19.73 16.6904 19.77 17.0204 19.84 17.3304C16.28 17.1504 13.11 15.4404 11 12.8504C10.63 13.4804 10.42 14.2204 10.42 15.0004C10.42 16.4904 11.17 17.8104 12.33 18.5604C11.62 18.5604 10.96 18.3604 10.38 18.0604V18.0904C10.38 20.1704 11.86 21.9104 13.82 22.3004C13.1908 22.4726 12.5301 22.4965 11.89 22.3704C12.1616 23.2228 12.6936 23.9688 13.4111 24.5033C14.1285 25.0378 14.9955 25.3341 15.89 25.3504C14.3737 26.5508 12.494 27.1997 10.56 27.1904C10.22 27.1904 9.88004 27.1704 9.54004 27.1304C11.44 28.3504 13.7 29.0604 16.12 29.0604C24 29.0604 28.33 22.5204 28.33 16.8504C28.33 16.6604 28.33 16.4804 28.32 16.2904C29.16 15.6904 29.88 14.9304 30.46 14.0604Z" fill="#083049"/>
<rect x="0.5" y="1.06036" width="39" height="39" rx="7.5" stroke="#083049"/>
</svg>
