<svg width="8" height="15" viewBox="0 0 8 15" fill="none" xmlns="http://www.w3.org/2000/svg">
<path d="M3.9502 7.06036C3.67405 7.06036 3.4502 7.28422 3.4502 7.56036C3.4502 7.83651 3.67405 8.06036 3.9502 8.06036V7.06036ZM4.40375 7.91392C4.59901 7.71866 4.59901 7.40207 4.40375 7.20681L1.22177 4.02483C1.02651 3.82957 0.709924 3.82957 0.514661 4.02483C0.319399 4.22009 0.319399 4.53667 0.514661 4.73194L3.34309 7.56036L0.514661 10.3888C0.319399 10.5841 0.319399 10.9006 0.514661 11.0959C0.709924 11.2912 1.02651 11.2912 1.22177 11.0959L4.40375 7.91392ZM3.9502 8.06036H4.0502V7.06036H3.9502V8.06036Z" fill="#64B930"/>
</svg>
