<svg width="16" height="12" viewBox="0 0 16 12" fill="none" xmlns="http://www.w3.org/2000/svg">
<path d="M9.3 11.4103C9.1 11.2103 9.004 10.9686 9.012 10.6853C9.02067 10.402 9.125 10.1603 9.325 9.9603L12.15 7.1353H1C0.716667 7.1353 0.479 7.0393 0.287 6.8473C0.0956668 6.65597 0 6.41864 0 6.1353C0 5.85197 0.0956668 5.6143 0.287 5.4223C0.479 5.23097 0.716667 5.1353 1 5.1353H12.15L9.3 2.2853C9.1 2.0853 9 1.84764 9 1.5723C9 1.29764 9.1 1.0603 9.3 0.860302C9.5 0.660302 9.73767 0.560303 10.013 0.560303C10.2877 0.560303 10.525 0.660302 10.725 0.860302L15.3 5.4353C15.4 5.5353 15.471 5.64364 15.513 5.7603C15.5543 5.87697 15.575 6.00197 15.575 6.1353C15.575 6.26864 15.5543 6.39364 15.513 6.5103C15.471 6.62697 15.4 6.7353 15.3 6.8353L10.7 11.4353C10.5167 11.6186 10.2877 11.7103 10.013 11.7103C9.73767 11.7103 9.5 11.6103 9.3 11.4103Z" fill="#083049"/>
</svg>
