<svg width="40" height="41" viewBox="0 0 40 41" fill="none" xmlns="http://www.w3.org/2000/svg">
<rect x="0.5" y="1.0603" width="39" height="39" rx="19.5" fill="white"/>
<path d="M14.8811 30.165C14.627 29.9015 14.5 29.5896 14.5 29.2291C14.5 28.8693 14.627 28.5577 14.8811 28.2942L22.3245 20.5735L14.8557 12.8264C14.6186 12.5805 14.5 12.2731 14.5 11.9042C14.5 11.5353 14.627 11.2191 14.8811 10.9556C15.1351 10.6921 15.4359 10.5603 15.7834 10.5603C16.1303 10.5603 16.4307 10.6921 16.6848 10.9556L25.2206 19.8357C25.3222 19.9411 25.3943 20.0553 25.437 20.1782C25.479 20.3012 25.5 20.4329 25.5 20.5735C25.5 20.714 25.479 20.8458 25.437 20.9687C25.3943 21.0917 25.3222 21.2059 25.2206 21.3113L16.6594 30.1914C16.4222 30.4373 16.1303 30.5603 15.7834 30.5603C15.4359 30.5603 15.1351 30.4285 14.8811 30.165Z" fill="#083049"/>
<rect x="0.5" y="1.0603" width="39" height="39" rx="19.5" stroke="#083049"/>
</svg>
