<svg width="40" height="41" viewBox="0 0 40 41" fill="none" xmlns="http://www.w3.org/2000/svg">
<rect x="0.5" y="1.0603" width="39" height="39" rx="19.5" fill="white"/>
<path d="M23.3203 30.1645L14.7788 21.2991C14.6774 21.1935 14.6058 21.0792 14.5639 20.9561C14.5213 20.833 14.5 20.701 14.5 20.5603C14.5 20.4196 14.5213 20.2877 14.5639 20.1645C14.6058 20.0414 14.6774 19.9271 14.7788 19.8215L23.3203 10.9297C23.5568 10.6834 23.8525 10.5603 24.2074 10.5603C24.5622 10.5603 24.8664 10.6922 25.1198 10.9561C25.3733 11.2199 25.5 11.5278 25.5 11.8796C25.5 12.2314 25.3733 12.5392 25.1198 12.803L17.6682 20.5603L25.1198 28.3176C25.3564 28.5638 25.4747 28.8671 25.4747 29.2273C25.4747 29.5883 25.3479 29.9007 25.0945 30.1645C24.841 30.4284 24.5453 30.5603 24.2074 30.5603C23.8694 30.5603 23.5737 30.4284 23.3203 30.1645Z" fill="#083049"/>
<rect x="0.5" y="1.0603" width="39" height="39" rx="19.5" stroke="#083049"/>
</svg>
