<svg width="16" height="17" viewBox="0 0 16 17" fill="none" xmlns="http://www.w3.org/2000/svg">
<path d="M15 7.56037H3.83005L8.71005 2.68037C9.10005 2.29037 9.10005 1.65037 8.71005 1.26037C8.61753 1.16767 8.50764 1.09412 8.38667 1.04394C8.2657 0.993756 8.13602 0.967926 8.00505 0.967926C7.87408 0.967926 7.7444 0.993756 7.62342 1.04394C7.50245 1.09412 7.39256 1.16767 7.30005 1.26037L0.710047 7.85037C0.617343 7.94288 0.543796 8.05277 0.493614 8.17375C0.443433 8.29472 0.417603 8.4244 0.417603 8.55537C0.417603 8.68634 0.443433 8.81602 0.493614 8.93699C0.543796 9.05797 0.617343 9.16786 0.710047 9.26037L7.30005 15.8504C7.39263 15.943 7.50254 16.0164 7.6235 16.0665C7.74447 16.1166 7.87412 16.1424 8.00505 16.1424C8.13598 16.1424 8.26563 16.1166 8.38659 16.0665C8.50755 16.0164 8.61747 15.943 8.71005 15.8504C8.80263 15.7578 8.87607 15.6479 8.92617 15.5269C8.97628 15.4059 9.00207 15.2763 9.00207 15.1454C9.00207 15.0144 8.97628 14.8848 8.92617 14.7638C8.87607 14.6429 8.80263 14.533 8.71005 14.4404L3.83005 9.56037H15C15.55 9.56037 16 9.11037 16 8.56037C16 8.01037 15.55 7.56037 15 7.56037Z" fill="#083049"/>
</svg>
