<svg width="16" height="13" viewBox="0 0 16 13" fill="none" xmlns="http://www.w3.org/2000/svg">
<path d="M5.13004 9.15117L13.5964 0.894605C13.8595 0.638045 14.1943 0.509766 14.6009 0.509766C15.0075 0.509766 15.3423 0.638045 15.6054 0.894605C15.8685 1.15116 16 1.47769 16 1.8742C16 2.2707 15.8685 2.59723 15.6054 2.85379L6.13453 12.0899C5.84753 12.3698 5.51271 12.5098 5.13004 12.5098C4.74738 12.5098 4.41256 12.3698 4.12556 12.0899L0.394618 8.45146C0.131539 8.1949 0 7.86837 0 7.47186C0 7.07536 0.131539 6.74883 0.394618 6.49227C0.657697 6.23571 0.992526 6.10743 1.3991 6.10743C1.80568 6.10743 2.14051 6.23571 2.40359 6.49227L5.13004 9.15117Z" fill="#083049"/>
</svg>
