<svg width="13" height="10" viewBox="0 0 13 10" fill="none" xmlns="http://www.w3.org/2000/svg">
<path fill-rule="evenodd" clip-rule="evenodd" d="M7.40421 2.65479H1.16821C1.0356 2.65479 0.908428 2.60211 0.814659 2.50834C0.720891 2.41457 0.668213 2.2874 0.668213 2.15479C0.668213 2.02218 0.720891 1.895 0.814659 1.80124C0.908428 1.70747 1.0356 1.65479 1.16821 1.65479H7.40421C7.51317 1.27084 7.7444 0.932915 8.06281 0.692289C8.38122 0.451663 8.76944 0.321472 9.16855 0.321472C9.56765 0.321472 9.95587 0.451663 10.2743 0.692289C10.5927 0.932915 10.8239 1.27084 10.9329 1.65479H11.8349C11.9675 1.65479 12.0947 1.70747 12.1884 1.80124C12.2822 1.895 12.3349 2.02218 12.3349 2.15479C12.3349 2.2874 12.2822 2.41457 12.1884 2.50834C12.0947 2.60211 11.9675 2.65479 11.8349 2.65479H10.9322C10.8233 3.03874 10.592 3.37666 10.2736 3.61729C9.9552 3.85791 9.56699 3.98811 9.16788 3.98811C8.76877 3.98811 8.38056 3.85791 8.06214 3.61729C7.74373 3.37666 7.5125 3.03874 7.40355 2.65479H7.40421ZM8.33488 2.15479C8.33488 1.93377 8.42268 1.72181 8.57896 1.56553C8.73524 1.40925 8.9472 1.32146 9.16821 1.32146C9.38923 1.32146 9.60119 1.40925 9.75747 1.56553C9.91375 1.72181 10.0015 1.93377 10.0015 2.15479C10.0015 2.3758 9.91375 2.58776 9.75747 2.74404C9.60119 2.90032 9.38923 2.98812 9.16821 2.98812C8.9472 2.98812 8.73524 2.90032 8.57896 2.74404C8.42268 2.58776 8.33488 2.3758 8.33488 2.15479ZM5.59888 7.98812H11.8349C11.9675 7.98812 12.0947 7.93544 12.1884 7.84168C12.2822 7.74791 12.3349 7.62073 12.3349 7.48812C12.3349 7.35551 12.2822 7.22834 12.1884 7.13457C12.0947 7.0408 11.9675 6.98812 11.8349 6.98812H5.59888C5.48972 6.60445 5.25845 6.26682 4.94013 6.02643C4.6218 5.78603 4.23378 5.65598 3.83488 5.65598C3.43598 5.65598 3.04796 5.78603 2.72963 6.02643C2.4113 6.26682 2.18003 6.60445 2.07088 6.98812H1.16821C1.0356 6.98812 0.908428 7.0408 0.814659 7.13457C0.720891 7.22834 0.668213 7.35551 0.668213 7.48812C0.668213 7.62073 0.720891 7.74791 0.814659 7.84168C0.908428 7.93544 1.0356 7.98812 1.16821 7.98812H2.07088C2.18003 8.3718 2.4113 8.70942 2.72963 8.94982C3.04796 9.19021 3.43598 9.32027 3.83488 9.32027C4.23378 9.32027 4.6218 9.19021 4.94013 8.94982C5.25845 8.70942 5.48972 8.3718 5.59888 7.98812ZM3.00155 7.48812C3.00155 7.26711 3.08934 7.05515 3.24562 6.89887C3.4019 6.74259 3.61387 6.65479 3.83488 6.65479C4.05589 6.65479 4.26785 6.74259 4.42414 6.89887C4.58042 7.05515 4.66821 7.26711 4.66821 7.48812C4.66821 7.70914 4.58042 7.9211 4.42414 8.07738C4.26785 8.23366 4.05589 8.32146 3.83488 8.32146C3.61387 8.32146 3.4019 8.23366 3.24562 8.07738C3.08934 7.9211 3.00155 7.70914 3.00155 7.48812Z" fill="#083049"/>
</svg>
