<svg width="40" height="41" viewBox="0 0 40 41" fill="none" xmlns="http://www.w3.org/2000/svg">
<rect y="0.296875" width="40" height="40" rx="20" fill="#64B930" fill-opacity="0.1"/>
<path d="M29.9229 14.9149C29.8214 14.6706 29.6272 14.4764 29.3829 14.3749C29.2626 14.3237 29.1335 14.2965 29.0029 14.2949H24.0029C23.7377 14.2949 23.4833 14.4003 23.2958 14.5878C23.1082 14.7754 23.0029 15.0297 23.0029 15.2949C23.0029 15.5601 23.1082 15.8145 23.2958 16.002C23.4833 16.1896 23.7377 16.2949 24.0029 16.2949H26.5929L21.0029 21.8849L17.7129 18.5849C17.6199 18.4912 17.5093 18.4168 17.3874 18.366C17.2656 18.3153 17.1349 18.2891 17.0029 18.2891C16.8709 18.2891 16.7402 18.3153 16.6183 18.366C16.4964 18.4168 16.3858 18.4912 16.2929 18.5849L10.2929 24.5849C10.1991 24.6779 10.1247 24.7885 10.074 24.9103C10.0232 25.0322 9.99707 25.1629 9.99707 25.2949C9.99707 25.4269 10.0232 25.5576 10.074 25.6795C10.1247 25.8014 10.1991 25.912 10.2929 26.0049C10.3858 26.0986 10.4964 26.173 10.6183 26.2238C10.7402 26.2746 10.8709 26.3007 11.0029 26.3007C11.1349 26.3007 11.2656 26.2746 11.3874 26.2238C11.5093 26.173 11.6199 26.0986 11.7129 26.0049L17.0029 20.7049L20.2929 24.0049C20.3858 24.0986 20.4964 24.173 20.6183 24.2238C20.7402 24.2746 20.8709 24.3007 21.0029 24.3007C21.1349 24.3007 21.2656 24.2746 21.3874 24.2238C21.5093 24.173 21.6199 24.0986 21.7129 24.0049L28.0029 17.7049V20.2949C28.0029 20.5601 28.1082 20.8145 28.2958 21.002C28.4833 21.1896 28.7377 21.2949 29.0029 21.2949C29.2681 21.2949 29.5224 21.1896 29.71 21.002C29.8975 20.8145 30.0029 20.5601 30.0029 20.2949V15.2949C30.0013 15.1642 29.9741 15.0351 29.9229 14.9149Z" fill="#64B930"/>
</svg>
