<svg width="40" height="41" viewBox="0 0 40 41" fill="none" xmlns="http://www.w3.org/2000/svg">
<path d="M9.99984 3.89371C9.11578 3.89371 8.26794 4.2449 7.64281 4.87002C7.01769 5.49514 6.6665 6.34299 6.6665 7.22704V33.8937C6.6665 34.7778 7.01769 35.6256 7.64281 36.2507C8.26794 36.8759 9.11578 37.227 9.99984 37.227H29.9998C30.8839 37.227 31.7317 36.8759 32.3569 36.2507C32.982 35.6256 33.3332 34.7778 33.3332 33.8937V13.8937L23.3332 3.89371H9.99984ZM9.99984 7.22704H21.6665V15.5604H29.9998V33.8937H9.99984V7.22704ZM13.3332 20.5604V23.8937H26.6665V20.5604H13.3332ZM13.3332 27.227V30.5604H21.6665V27.227H13.3332Z" fill="white"/>
</svg>
