<svg width="304" height="305" viewBox="0 0 304 305" fill="none" xmlns="http://www.w3.org/2000/svg">
<g filter="url(#filter0_d_226_82)">
<rect x="80" y="80.2979" width="144" height="144" rx="72" fill="white"/>
<path d="M141.664 150.298L159.712 109.466L162.4 113.946H138.272L142.88 109.082V121.242H133.664V105.498H169.568V112.218L152.928 150.298H141.664Z" fill="#083049"/>
<path d="M120.156 174.298V158.198H127.744C129.592 158.198 131.197 158.525 132.56 159.178C133.941 159.831 135.005 160.765 135.752 161.978C136.517 163.173 136.9 164.601 136.9 166.262C136.9 167.905 136.517 169.333 135.752 170.546C135.005 171.741 133.941 172.665 132.56 173.318C131.197 173.971 129.592 174.298 127.744 174.298H120.156ZM124.58 170.826H127.604C128.593 170.826 129.443 170.649 130.152 170.294C130.88 169.939 131.44 169.426 131.832 168.754C132.224 168.063 132.42 167.233 132.42 166.262C132.42 165.273 132.224 164.442 131.832 163.77C131.44 163.079 130.88 162.557 130.152 162.202C129.443 161.847 128.593 161.67 127.604 161.67H124.58V170.826ZM137.353 174.298L144.577 158.198H148.945L156.197 174.298H151.829L146.033 160.326H147.517L141.637 174.298H137.353ZM141.301 171.106L142.449 167.914H150.401L151.549 171.106H141.301ZM160.938 174.298V167.606L161.75 170.294L154.442 158.198H159.118L164.494 167.074H162.058L167.434 158.198H171.886L164.55 170.294L165.362 167.606V174.298H160.938ZM185.94 169.398C185.94 170.406 185.651 171.302 185.072 172.086C184.512 172.87 183.691 173.486 182.608 173.934C181.544 174.382 180.228 174.606 178.66 174.606C177.372 174.606 176.103 174.447 174.852 174.13C173.62 173.813 172.622 173.393 171.856 172.87L173.396 169.594C174.124 170.079 174.974 170.462 175.944 170.742C176.915 171.022 177.904 171.162 178.912 171.162C179.902 171.162 180.592 171.022 180.984 170.742C181.376 170.462 181.572 170.135 181.572 169.762C181.572 169.389 181.395 169.09 181.04 168.866C180.704 168.642 180.256 168.465 179.696 168.334C179.155 168.185 178.548 168.045 177.876 167.914C177.223 167.783 176.56 167.615 175.888 167.41C175.235 167.205 174.628 166.934 174.068 166.598C173.527 166.243 173.079 165.786 172.724 165.226C172.388 164.647 172.22 163.929 172.22 163.07C172.22 162.062 172.51 161.175 173.088 160.41C173.686 159.626 174.526 159.01 175.608 158.562C176.691 158.114 177.979 157.89 179.472 157.89C180.48 157.89 181.507 158.002 182.552 158.226C183.598 158.45 184.512 158.805 185.296 159.29L183.868 162.566C183.14 162.118 182.384 161.801 181.6 161.614C180.835 161.427 180.07 161.334 179.304 161.334C178.371 161.334 177.69 161.474 177.26 161.754C176.831 162.034 176.616 162.389 176.616 162.818C176.616 163.191 176.784 163.49 177.12 163.714C177.456 163.938 177.895 164.125 178.436 164.274C178.996 164.405 179.612 164.535 180.284 164.666C180.956 164.797 181.619 164.965 182.272 165.17C182.926 165.357 183.532 165.618 184.092 165.954C184.652 166.29 185.1 166.738 185.436 167.298C185.772 167.839 185.94 168.539 185.94 169.398Z" fill="#083049"/>
<rect x="118" y="179.298" width="68" height="19" rx="4" fill="#083049"/>
<path d="M125.164 193.298V186.482H127.948C128.548 186.482 129.064 186.578 129.496 186.77C129.928 186.954 130.264 187.226 130.504 187.586C130.744 187.938 130.864 188.37 130.864 188.882C130.864 189.378 130.744 189.806 130.504 190.166C130.264 190.526 129.928 190.802 129.496 190.994C129.064 191.178 128.548 191.27 127.948 191.27H125.812L126.328 190.742V193.298H125.164ZM129.724 193.298L127.948 190.826H129.208L130.984 193.298H129.724ZM126.328 190.874L125.884 190.322H127.876C128.468 190.322 128.916 190.198 129.22 189.95C129.532 189.702 129.688 189.346 129.688 188.882C129.688 188.418 129.532 188.062 129.22 187.814C128.916 187.566 128.468 187.442 127.876 187.442H125.884L126.328 186.89V190.874ZM132.723 193.298V186.482H133.887V193.298H132.723ZM140.967 191.354C140.967 191.77 140.855 192.13 140.631 192.434C140.415 192.738 140.099 192.974 139.683 193.142C139.275 193.31 138.779 193.394 138.195 193.394C137.667 193.394 137.151 193.322 136.647 193.178C136.151 193.026 135.763 192.826 135.483 192.578L135.939 191.666C136.211 191.882 136.551 192.062 136.959 192.206C137.367 192.342 137.795 192.41 138.243 192.41C138.819 192.41 139.223 192.318 139.455 192.134C139.687 191.942 139.803 191.718 139.803 191.462C139.803 191.238 139.727 191.062 139.575 190.934C139.431 190.798 139.235 190.694 138.987 190.622C138.739 190.542 138.467 190.47 138.171 190.406C137.883 190.342 137.591 190.27 137.295 190.19C137.007 190.11 136.739 190.002 136.491 189.866C136.251 189.73 136.055 189.546 135.903 189.314C135.751 189.074 135.675 188.774 135.675 188.414C135.675 188.006 135.787 187.65 136.011 187.346C136.235 187.042 136.551 186.806 136.959 186.638C137.367 186.47 137.855 186.386 138.423 186.386C138.839 186.386 139.251 186.434 139.659 186.53C140.067 186.618 140.419 186.766 140.715 186.974L140.295 187.91C140.007 187.71 139.695 187.57 139.359 187.49C139.031 187.41 138.707 187.37 138.387 187.37C137.843 187.37 137.447 187.466 137.199 187.658C136.959 187.842 136.839 188.07 136.839 188.342C136.839 188.566 136.915 188.746 137.067 188.882C137.219 189.01 137.415 189.114 137.655 189.194C137.903 189.266 138.175 189.334 138.471 189.398C138.767 189.462 139.059 189.534 139.347 189.614C139.635 189.694 139.903 189.802 140.151 189.938C140.399 190.074 140.595 190.258 140.739 190.49C140.891 190.714 140.967 191.002 140.967 191.354ZM143.61 191.666L143.55 190.286L147.306 186.482H148.602L145.59 189.65L144.942 190.322L143.61 191.666ZM142.578 193.298V186.482H143.742V193.298H142.578ZM147.414 193.298L144.702 190.13L145.458 189.278L148.794 193.298H147.414ZM154.226 189.662H157.802V190.622H154.226V189.662ZM154.406 193.298H153.242V186.482H158.222V187.442H154.406V193.298ZM159.769 193.298V186.482H162.553C163.153 186.482 163.669 186.578 164.101 186.77C164.533 186.954 164.869 187.226 165.109 187.586C165.349 187.938 165.469 188.37 165.469 188.882C165.469 189.378 165.349 189.806 165.109 190.166C164.869 190.526 164.533 190.802 164.101 190.994C163.669 191.178 163.153 191.27 162.553 191.27H160.417L160.933 190.742V193.298H159.769ZM164.329 193.298L162.553 190.826H163.813L165.589 193.298H164.329ZM160.933 190.874L160.489 190.322H162.481C163.073 190.322 163.521 190.198 163.825 189.95C164.137 189.702 164.293 189.346 164.293 188.882C164.293 188.418 164.137 188.062 163.825 187.814C163.521 187.566 163.073 187.442 162.481 187.442H160.489L160.933 186.89V190.874ZM168.3 189.362H171.888V190.31H168.3V189.362ZM168.492 192.326H172.44V193.298H167.328V186.482H172.308V187.442H168.492V192.326ZM175.144 189.362H178.732V190.31H175.144V189.362ZM175.336 192.326H179.284V193.298H174.172V186.482H179.152V187.442H175.336V192.326Z" fill="white"/>
<rect x="80.5" y="80.7979" width="143" height="143" rx="71.5" stroke="#E3E3E3"/>
</g>
<defs>
<filter id="filter0_d_226_82" x="0" y="0.297852" width="304" height="304" filterUnits="userSpaceOnUse" color-interpolation-filters="sRGB">
<feFlood flood-opacity="0" result="BackgroundImageFix"/>
<feColorMatrix in="SourceAlpha" type="matrix" values="0 0 0 0 0 0 0 0 0 0 0 0 0 0 0 0 0 0 127 0" result="hardAlpha"/>
<feOffset/>
<feGaussianBlur stdDeviation="40"/>
<feComposite in2="hardAlpha" operator="out"/>
<feColorMatrix type="matrix" values="0 0 0 0 0 0 0 0 0 0 0 0 0 0 0 0 0 0 0.1 0"/>
<feBlend mode="normal" in2="BackgroundImageFix" result="effect1_dropShadow_226_82"/>
<feBlend mode="normal" in="SourceGraphic" in2="effect1_dropShadow_226_82" result="shape"/>
</filter>
</defs>
</svg>
