<svg width="118" height="61" viewBox="0 0 118 61" fill="none" xmlns="http://www.w3.org/2000/svg">
<path d="M5.75492 39.9796H7.8729V47.4675H5.75492V39.9796ZM2.86676 47.4675H0.748779V39.9796H2.86676V47.4675ZM5.90468 44.5472H2.71701V42.7929H5.90468V44.5472Z" fill="#083049"/>
<path d="M13.1429 47.6172C12.5438 47.6172 11.9912 47.5209 11.4849 47.3284C10.9785 47.1358 10.5364 46.8649 10.1584 46.5154C9.78762 46.1589 9.4988 45.7453 9.292 45.2746C9.08519 44.8039 8.98179 44.2869 8.98179 43.7235C8.98179 43.1602 9.08519 42.6432 9.292 42.1725C9.4988 41.7018 9.78762 41.2918 10.1584 40.9424C10.5364 40.5858 10.9785 40.3112 11.4849 40.1187C11.9912 39.9261 12.5438 39.8299 13.1429 39.8299C13.749 39.8299 14.3017 39.9261 14.8009 40.1187C15.3072 40.3112 15.7458 40.5858 16.1166 40.9424C16.4874 41.2918 16.7762 41.7018 16.9831 42.1725C17.197 42.6432 17.304 43.1602 17.304 43.7235C17.304 44.2869 17.197 44.8075 16.9831 45.2853C16.7762 45.756 16.4874 46.166 16.1166 46.5154C15.7458 46.8649 15.3072 47.1358 14.8009 47.3284C14.3017 47.5209 13.749 47.6172 13.1429 47.6172ZM13.1429 45.8629C13.4281 45.8629 13.692 45.813 13.9344 45.7132C14.184 45.6133 14.398 45.4707 14.5763 45.2853C14.7617 45.0927 14.9043 44.8645 15.0041 44.6007C15.1111 44.3368 15.1646 44.0444 15.1646 43.7235C15.1646 43.3955 15.1111 43.1031 15.0041 42.8464C14.9043 42.5825 14.7617 42.3579 14.5763 42.1725C14.398 41.9799 14.184 41.8338 13.9344 41.7339C13.692 41.6341 13.4281 41.5842 13.1429 41.5842C12.8576 41.5842 12.5902 41.6341 12.3406 41.7339C12.0981 41.8338 11.8842 41.9799 11.6988 42.1725C11.5205 42.3579 11.3779 42.5825 11.2709 42.8464C11.1711 43.1031 11.1212 43.3955 11.1212 43.7235C11.1212 44.0444 11.1711 44.3368 11.2709 44.6007C11.3779 44.8645 11.5205 45.0927 11.6988 45.2853C11.8842 45.4707 12.0981 45.6133 12.3406 45.7132C12.5902 45.813 12.8576 45.8629 13.1429 45.8629Z" fill="#083049"/>
<path d="M21.8684 47.6172C20.763 47.6172 19.9001 47.3141 19.2797 46.708C18.6593 46.1018 18.3491 45.2425 18.3491 44.13V39.9796H20.4671V44.0658C20.4671 44.7077 20.5919 45.1676 20.8415 45.4457C21.0982 45.7239 21.4476 45.8629 21.8898 45.8629C22.3319 45.8629 22.6778 45.7239 22.9273 45.4457C23.1769 45.1676 23.3017 44.7077 23.3017 44.0658V39.9796H25.3876V44.13C25.3876 45.2425 25.0774 46.1018 24.457 46.708C23.8366 47.3141 22.9737 47.6172 21.8684 47.6172Z" fill="#083049"/>
<path d="M29.4539 47.6172C28.8406 47.6172 28.2487 47.5423 27.6782 47.3926C27.1148 47.2357 26.6549 47.036 26.2983 46.7935L26.9936 45.2318C27.3288 45.4457 27.7138 45.624 28.1488 45.7666C28.591 45.9021 29.0296 45.9699 29.4646 45.9699C29.7569 45.9699 29.9923 45.9449 30.1706 45.895C30.3488 45.838 30.4772 45.7666 30.5556 45.6811C30.6412 45.5884 30.684 45.4814 30.684 45.3602C30.684 45.189 30.6056 45.0535 30.4487 44.9537C30.2918 44.8538 30.0886 44.7718 29.839 44.7077C29.5894 44.6435 29.3112 44.5793 29.0046 44.5151C28.7051 44.4509 28.402 44.3689 28.0954 44.2691C27.7959 44.1692 27.5213 44.0409 27.2717 43.884C27.0221 43.72 26.8189 43.5096 26.662 43.2529C26.5051 42.989 26.4267 42.6574 26.4267 42.2581C26.4267 41.8088 26.5479 41.4023 26.7903 41.0386C27.0399 40.6749 27.4108 40.3825 27.9028 40.1615C28.3949 39.9404 29.0082 39.8299 29.7427 39.8299C30.2347 39.8299 30.7161 39.8869 31.1868 40.001C31.6646 40.108 32.0889 40.2684 32.4597 40.4824L31.8072 42.0548C31.4506 41.8623 31.0976 41.7197 30.7482 41.627C30.3988 41.5271 30.06 41.4772 29.732 41.4772C29.4396 41.4772 29.2043 41.5093 29.026 41.5735C28.8477 41.6305 28.7193 41.709 28.6409 41.8088C28.5625 41.9086 28.5232 42.0227 28.5232 42.1511C28.5232 42.3151 28.5981 42.447 28.7479 42.5469C28.9048 42.6396 29.108 42.718 29.3576 42.7822C29.6143 42.8393 29.8924 42.8999 30.192 42.9641C30.4986 43.0282 30.8017 43.1103 31.1012 43.2101C31.4078 43.3028 31.6859 43.4312 31.9355 43.5952C32.1851 43.7521 32.3848 43.9624 32.5346 44.2263C32.6915 44.483 32.7699 44.8075 32.7699 45.1997C32.7699 45.6347 32.6451 46.0376 32.3955 46.4085C32.153 46.7722 31.7858 47.0645 31.2937 47.2856C30.8088 47.5067 30.1955 47.6172 29.4539 47.6172Z" fill="#083049"/>
<path d="M35.6951 42.8785H39.1716V44.4616H35.6951V42.8785ZM35.8448 45.8308H39.7599V47.4675H33.7482V39.9796H39.6208V41.6163H35.8448V45.8308Z" fill="#083049"/>
<path d="M44.0482 47.4675V39.9796H47.4712C48.1558 39.9796 48.7441 40.0902 49.2362 40.3112C49.7354 40.5323 50.1204 40.8532 50.3914 41.274C50.6624 41.6876 50.7979 42.1796 50.7979 42.7501C50.7979 43.3135 50.6624 43.802 50.3914 44.2156C50.1204 44.6221 49.7354 44.9359 49.2362 45.1569C48.7441 45.3709 48.1558 45.4778 47.4712 45.4778H45.2248L46.1662 44.59V47.4675H44.0482ZM48.6799 47.4675L46.8187 44.7397H49.0757L50.9477 47.4675H48.6799ZM46.1662 44.8146L45.2248 43.8412H47.3428C47.785 43.8412 48.113 43.7449 48.3269 43.5524C48.548 43.3598 48.6585 43.0924 48.6585 42.7501C48.6585 42.4007 48.548 42.1297 48.3269 41.9372C48.113 41.7446 47.785 41.6483 47.3428 41.6483H45.2248L46.1662 40.6749V44.8146Z" fill="#083049"/>
<path d="M53.9132 42.8785H57.3897V44.4616H53.9132V42.8785ZM54.063 45.8308H57.978V47.4675H51.9664V39.9796H57.839V41.6163H54.063V45.8308Z" fill="#083049"/>
<path d="M59.1534 47.4675V39.9796H61.2713V45.788H64.8441V47.4675H59.1534Z" fill="#083049"/>
<path d="M69.3433 47.6172C68.7443 47.6172 68.1916 47.5209 67.6853 47.3284C67.179 47.1358 66.7368 46.8649 66.3589 46.5154C65.988 46.1589 65.6992 45.7453 65.4924 45.2746C65.2856 44.8039 65.1822 44.2869 65.1822 43.7235C65.1822 43.1602 65.2856 42.6432 65.4924 42.1725C65.6992 41.7018 65.988 41.2918 66.3589 40.9424C66.7368 40.5858 67.179 40.3112 67.6853 40.1187C68.1916 39.9261 68.7443 39.8299 69.3433 39.8299C69.9495 39.8299 70.5021 39.9261 71.0013 40.1187C71.5076 40.3112 71.9462 40.5858 72.317 40.9424C72.6879 41.2918 72.9767 41.7018 73.1835 42.1725C73.3974 42.6432 73.5044 43.1602 73.5044 43.7235C73.5044 44.2869 73.3974 44.8075 73.1835 45.2853C72.9767 45.756 72.6879 46.166 72.317 46.5154C71.9462 46.8649 71.5076 47.1358 71.0013 47.3284C70.5021 47.5209 69.9495 47.6172 69.3433 47.6172ZM69.3433 45.8629C69.6286 45.8629 69.8924 45.813 70.1349 45.7132C70.3845 45.6133 70.5984 45.4707 70.7767 45.2853C70.9621 45.0927 71.1047 44.8645 71.2046 44.6007C71.3115 44.3368 71.365 44.0444 71.365 43.7235C71.365 43.3955 71.3115 43.1031 71.2046 42.8464C71.1047 42.5825 70.9621 42.3579 70.7767 42.1725C70.5984 41.9799 70.3845 41.8338 70.1349 41.7339C69.8924 41.6341 69.6286 41.5842 69.3433 41.5842C69.0581 41.5842 68.7906 41.6341 68.541 41.7339C68.2986 41.8338 68.0846 41.9799 67.8992 42.1725C67.7209 42.3579 67.5783 42.5825 67.4713 42.8464C67.3715 43.1031 67.3216 43.3955 67.3216 43.7235C67.3216 44.0444 67.3715 44.3368 67.4713 44.6007C67.5783 44.8645 67.7209 45.0927 67.8992 45.2853C68.0846 45.4707 68.2986 45.6133 68.541 45.7132C68.7906 45.813 69.0581 45.8629 69.3433 45.8629Z" fill="#083049"/>
<path d="M78.3469 47.6172C77.755 47.6172 77.2059 47.5245 76.6996 47.3391C76.2004 47.1465 75.7654 46.8756 75.3946 46.5261C75.0309 46.1767 74.7456 45.7666 74.5388 45.296C74.332 44.8182 74.2286 44.294 74.2286 43.7235C74.2286 43.153 74.332 42.6325 74.5388 42.1618C74.7456 41.684 75.0309 41.2704 75.3946 40.921C75.7654 40.5715 76.2004 40.3041 76.6996 40.1187C77.2059 39.9261 77.755 39.8299 78.3469 39.8299C79.0386 39.8299 79.6555 39.9511 80.1975 40.1936C80.7466 40.436 81.203 40.7855 81.5667 41.2419L80.2189 42.4613C79.9764 42.1761 79.709 41.9586 79.4166 41.8088C79.1313 41.659 78.8104 41.5842 78.4539 41.5842C78.1472 41.5842 77.8655 41.6341 77.6088 41.7339C77.3521 41.8338 77.131 41.9799 76.9456 42.1725C76.7673 42.3579 76.6247 42.5825 76.5177 42.8464C76.4179 43.1103 76.368 43.4026 76.368 43.7235C76.368 44.0444 76.4179 44.3368 76.5177 44.6007C76.6247 44.8645 76.7673 45.0927 76.9456 45.2853C77.131 45.4707 77.3521 45.6133 77.6088 45.7132C77.8655 45.813 78.1472 45.8629 78.4539 45.8629C78.8104 45.8629 79.1313 45.788 79.4166 45.6383C79.709 45.4885 79.9764 45.271 80.2189 44.9858L81.5667 46.2052C81.203 46.6545 80.7466 47.0039 80.1975 47.2535C79.6555 47.496 79.0386 47.6172 78.3469 47.6172Z" fill="#083049"/>
<path d="M81.4871 47.4675L84.7924 39.9796H86.8783L90.1944 47.4675H87.9908L85.4022 41.0172H86.2365L83.6479 47.4675H81.4871ZM83.2949 46.0127L83.8404 44.4509H87.4987L88.0443 46.0127H83.2949Z" fill="#083049"/>
<path d="M92.0126 47.4675V41.659H89.7128V39.9796H96.4197V41.659H94.1306V47.4675H92.0126Z" fill="#083049"/>
<path d="M97.2088 47.4675V39.9796H99.3268V47.4675H97.2088Z" fill="#083049"/>
<path d="M104.61 47.6172C104.011 47.6172 103.458 47.5209 102.952 47.3284C102.445 47.1358 102.003 46.8649 101.625 46.5154C101.254 46.1589 100.966 45.7453 100.759 45.2746C100.552 44.8039 100.449 44.2869 100.449 43.7235C100.449 43.1602 100.552 42.6432 100.759 42.1725C100.966 41.7018 101.254 41.2918 101.625 40.9424C102.003 40.5858 102.445 40.3112 102.952 40.1187C103.458 39.9261 104.011 39.8299 104.61 39.8299C105.216 39.8299 105.768 39.9261 106.268 40.1187C106.774 40.3112 107.212 40.5858 107.583 40.9424C107.954 41.2918 108.243 41.7018 108.45 42.1725C108.664 42.6432 108.771 43.1602 108.771 43.7235C108.771 44.2869 108.664 44.8075 108.45 45.2853C108.243 45.756 107.954 46.166 107.583 46.5154C107.212 46.8649 106.774 47.1358 106.268 47.3284C105.768 47.5209 105.216 47.6172 104.61 47.6172ZM104.61 45.8629C104.895 45.8629 105.159 45.813 105.401 45.7132C105.651 45.6133 105.865 45.4707 106.043 45.2853C106.228 45.0927 106.371 44.8645 106.471 44.6007C106.578 44.3368 106.631 44.0444 106.631 43.7235C106.631 43.3955 106.578 43.1031 106.471 42.8464C106.371 42.5825 106.228 42.3579 106.043 42.1725C105.865 41.9799 105.651 41.8338 105.401 41.7339C105.159 41.6341 104.895 41.5842 104.61 41.5842C104.324 41.5842 104.057 41.6341 103.807 41.7339C103.565 41.8338 103.351 41.9799 103.166 42.1725C102.987 42.3579 102.845 42.5825 102.738 42.8464C102.638 43.1031 102.588 43.3955 102.588 43.7235C102.588 44.0444 102.638 44.3368 102.738 44.6007C102.845 44.8645 102.987 45.0927 103.166 45.2853C103.351 45.4707 103.565 45.6133 103.807 45.7132C104.057 45.813 104.324 45.8629 104.61 45.8629Z" fill="#083049"/>
<path d="M109.88 47.4675V39.9796H111.624L115.753 44.9644H114.929V39.9796H117.004V47.4675H115.261L111.132 42.4827H111.955V47.4675H109.88Z" fill="#083049"/>
<path d="M48.3706 9.21262L46.8133 7.56519L26.7422 31.7564H29.9432L48.3706 9.21262Z" fill="#083049"/>
<path d="M72.6809 12.7676L48.1976 6.3513L70.0855 31.6697H90.5892L86.5231 26.8141V30.4558H72.4214L67.0575 24.3863H68.1822L77.4391 13.2011L86.5231 24.3863V25.5135H90.2432L77.4391 9.90628L72.6809 12.7676Z" fill="#083049"/>
<path d="M42.2281 22.3921H46.8999V27.0742H42.2281V22.3921Z" fill="#083049"/>
<path d="M48.2841 22.3921H52.9558V27.0742H48.2841V22.3921Z" fill="#083049"/>
<path d="M42.2281 28.4615H46.8999V31.7564H42.2281V28.4615Z" fill="#083049"/>
<path d="M48.2841 28.4615H52.9558V31.7564H48.2841V28.4615Z" fill="#083049"/>
<path d="M74.7572 20.8313H77.6987V23.7794H74.7572V20.8313Z" fill="#083049"/>
<path d="M78.3908 20.8313H81.3323V23.7794H78.3908V20.8313Z" fill="#083049"/>
<path d="M74.7572 24.473H77.6987V27.4211H74.7572V24.473Z" fill="#083049"/>
<path d="M78.3908 24.473H81.3323V27.4211H78.3908V24.473Z" fill="#083049"/>
<g clip-path="url(#clip0_323_2311)">
<path d="M90.4597 28.2517C90.2438 28.3839 89.9953 28.4533 89.7421 28.4523H89.6904C89.4412 28.4429 89.1874 28.3708 88.9383 28.236L90.5115 26.6644C90.5314 26.64 90.5417 26.6091 90.5401 26.5776C90.5386 26.5462 90.5254 26.5164 90.5031 26.4941C90.4808 26.4718 90.451 26.4586 90.4196 26.4571C90.3881 26.4556 90.3572 26.4658 90.3328 26.4858L88.7612 28.059C88.6264 27.8098 88.5544 27.556 88.545 27.3068C88.5342 27.0362 88.604 26.7684 88.7455 26.5375C89.1545 25.8621 90.1119 25.5017 91.3075 25.5722C91.3379 25.5744 91.3665 25.5875 91.3881 25.6091C91.4097 25.6307 91.4228 25.6593 91.425 25.6898C91.4955 26.8853 91.1351 27.8427 90.4597 28.2517ZM88.8098 28.1436C88.7925 28.1154 88.7769 28.0872 88.7612 28.059L88.4525 28.3661C88.429 28.3898 88.4158 28.4219 88.4158 28.4554C88.4158 28.4888 88.429 28.5209 88.4525 28.5447C88.4765 28.5679 88.5085 28.5808 88.5418 28.5808C88.5752 28.5808 88.6072 28.5679 88.6311 28.5447L88.9383 28.236L88.8536 28.1874C88.836 28.1761 88.8211 28.1612 88.8098 28.1436Z" fill="#64B930"/>
</g>
<g clip-path="url(#clip1_323_2311)">
<path d="M64.1376 9.0376C63.9423 9.19873 63.706 9.30228 63.4551 9.33663L63.4039 9.34387C63.1559 9.36943 62.8945 9.33359 62.6289 9.23503L63.9667 7.45869C63.9831 7.43178 63.9889 7.39973 63.9829 7.36879C63.977 7.33784 63.9598 7.31021 63.9346 7.29127C63.9094 7.27233 63.8781 7.26343 63.8467 7.2663C63.8153 7.26917 63.7861 7.28362 63.7648 7.30682L62.4288 9.08449C62.2605 8.85667 62.1536 8.61541 62.1095 8.37004C62.0609 8.10356 62.0925 7.82866 62.2004 7.58018C62.5108 6.85424 63.4083 6.3634 64.602 6.26588C64.6324 6.26378 64.6626 6.27273 64.687 6.29108C64.7114 6.30943 64.7284 6.33596 64.7348 6.3658C64.972 7.53973 64.7491 8.53814 64.1376 9.0376ZM62.4888 9.16148C62.4678 9.13596 62.4483 9.11023 62.4288 9.08449L62.1662 9.43179C62.1462 9.45862 62.1376 9.49225 62.1423 9.52537C62.147 9.55849 62.1645 9.58843 62.1912 9.60866C62.2181 9.62825 62.2517 9.63659 62.2847 9.63193C62.3177 9.62726 62.3476 9.60996 62.3681 9.58366L62.6289 9.23503L62.5384 9.19878C62.5193 9.19005 62.5024 9.17733 62.4888 9.16148Z" fill="#64B930"/>
</g>
<g clip-path="url(#clip2_323_2311)">
<path d="M57.032 7.52649C56.8161 7.6587 56.5676 7.72815 56.3144 7.72706H56.2627C56.0135 7.71766 55.7597 7.64558 55.5105 7.51082L57.0837 5.9392C57.1037 5.91484 57.1139 5.88392 57.1124 5.85245C57.1108 5.82098 57.0976 5.79121 57.0754 5.76893C57.0531 5.74665 57.0233 5.73345 56.9918 5.73191C56.9604 5.73036 56.9294 5.74058 56.9051 5.76057L55.3335 7.33376C55.1987 7.08462 55.1266 6.83078 55.1172 6.58164C55.1064 6.31098 55.1762 6.04321 55.3178 5.81227C55.7268 5.13693 56.6842 4.77654 57.8797 4.84705C57.9102 4.84923 57.9388 4.86231 57.9604 4.8839C57.982 4.90548 57.9951 4.93412 57.9972 4.96457C58.0678 6.16013 57.7074 7.11752 57.032 7.52649ZM55.382 7.41837C55.3648 7.39017 55.3491 7.36196 55.3335 7.33376L55.0248 7.64088C55.0012 7.66464 54.988 7.69674 54.988 7.73019C54.988 7.76364 55.0012 7.79574 55.0248 7.81951C55.0487 7.84268 55.0808 7.85563 55.1141 7.85563C55.1474 7.85563 55.1795 7.84268 55.2034 7.81951L55.5105 7.51082L55.4259 7.46225C55.4083 7.45094 55.3933 7.43598 55.382 7.41837Z" fill="#64B930"/>
</g>
<g clip-path="url(#clip3_323_2311)">
<path d="M37.1125 16.7655C37.146 16.9377 37.1309 17.1159 37.0688 17.2801L37.0563 17.3136C36.9898 17.4731 36.8815 17.6205 36.7336 17.7496L36.0944 16.3473C36.0834 16.3284 36.0658 16.3143 36.045 16.3077C36.0242 16.3011 36.0017 16.3024 35.9818 16.3115C35.9619 16.3206 35.9462 16.3367 35.9375 16.3568C35.9289 16.3768 35.928 16.3994 35.9351 16.42L36.5758 17.8216C36.3814 17.8488 36.1991 17.8341 36.035 17.7798C35.8567 17.7212 35.6997 17.611 35.5841 17.4632C35.2447 17.034 35.2427 16.325 35.5781 15.5659C35.5869 15.5466 35.6024 15.5312 35.6216 15.5224C35.6408 15.5136 35.6626 15.5121 35.6829 15.518C36.4763 15.7619 37.0106 16.2279 37.1125 16.7655ZM36.6425 17.8106C36.62 17.815 36.5979 17.8183 36.5758 17.8216L36.7004 18.0965C36.7101 18.1175 36.7278 18.1339 36.7495 18.142C36.7712 18.1501 36.7952 18.1493 36.8164 18.1398C36.8372 18.1298 36.8534 18.1122 36.8615 18.0905C36.8695 18.0689 36.8689 18.045 36.8597 18.0238L36.7336 17.7496L36.6816 17.7927C36.67 17.8014 36.6567 17.8075 36.6425 17.8106Z" fill="#64B930"/>
</g>
<g clip-path="url(#clip4_323_2311)">
<path d="M90.1255 21.9004C89.9096 22.0326 89.6611 22.1021 89.4079 22.101H89.3562C89.107 22.0916 88.8532 22.0195 88.604 21.8847L90.1772 20.3131C90.1972 20.2888 90.2074 20.2578 90.2059 20.2264C90.2043 20.1949 90.1911 20.1651 90.1689 20.1428C90.1466 20.1206 90.1168 20.1074 90.0853 20.1058C90.0539 20.1043 90.023 20.1145 89.9986 20.1345L88.427 21.7077C88.2922 21.4585 88.2201 21.2047 88.2107 20.9556C88.1999 20.6849 88.2697 20.4171 88.4113 20.1862C88.8203 19.5108 89.7777 19.1505 90.9732 19.221C91.0037 19.2232 91.0323 19.2362 91.0539 19.2578C91.0755 19.2794 91.0886 19.308 91.0907 19.3385C91.1613 20.5341 90.8009 21.4914 90.1255 21.9004ZM88.4755 21.7923C88.4583 21.7641 88.4426 21.7359 88.427 21.7077L88.1183 22.0148C88.0947 22.0386 88.0815 22.0707 88.0815 22.1041C88.0815 22.1376 88.0947 22.1697 88.1183 22.1934C88.1422 22.2166 88.1743 22.2295 88.2076 22.2295C88.2409 22.2295 88.273 22.2166 88.2969 22.1934L88.604 21.8847L88.5194 21.8362C88.5018 21.8249 88.4869 21.8099 88.4755 21.7923Z" fill="#64B930"/>
</g>
<g clip-path="url(#clip5_323_2311)">
<path d="M40.6489 13.5683C40.5431 13.7984 40.3754 13.9945 40.1645 14.1345L40.1215 14.1633C39.9093 14.2942 39.6583 14.3757 39.3764 14.4025L39.8081 12.2211C39.8111 12.1897 39.8024 12.1583 39.7836 12.133C39.7648 12.1078 39.7373 12.0904 39.7063 12.0843C39.6754 12.0782 39.6434 12.0838 39.6163 12.1C39.5893 12.1163 39.5694 12.142 39.5603 12.1721L39.1307 14.354C38.88 14.2221 38.6788 14.0513 38.5323 13.8496C38.3726 13.6308 38.2815 13.3695 38.2705 13.0989C38.2342 12.3102 38.8288 11.4778 39.8612 10.8707C39.8877 10.8555 39.9188 10.8504 39.9487 10.8563C39.9787 10.8623 40.0055 10.8788 40.0243 10.9028C40.7485 11.8567 40.9822 12.8526 40.6489 13.5683ZM39.2181 14.3972C39.1881 14.3834 39.1594 14.3687 39.1307 14.354L39.0453 14.781C39.039 14.8138 39.0459 14.8478 39.0645 14.8756C39.0831 14.9034 39.1119 14.9227 39.1447 14.9293C39.1775 14.9352 39.2113 14.9282 39.239 14.9096C39.2667 14.8911 39.2861 14.8625 39.2931 14.8299L39.3764 14.4025L39.279 14.4092C39.2581 14.4096 39.2373 14.4055 39.2181 14.3972Z" fill="#64B930"/>
</g>
<g clip-path="url(#clip6_323_2311)">
<path d="M38.9292 10.7739C38.8688 10.9053 38.7731 11.0172 38.6527 11.0972L38.6281 11.1136C38.507 11.1883 38.3637 11.2348 38.2027 11.2501L38.4492 10.0048C38.4509 9.98687 38.446 9.96896 38.4352 9.95452C38.4245 9.94009 38.4088 9.93017 38.3911 9.92669C38.3735 9.9232 38.3552 9.92641 38.3397 9.93568C38.3243 9.94495 38.3129 9.95962 38.3077 9.97684L38.0625 11.2224C37.9194 11.1471 37.8045 11.0497 37.7209 10.9345C37.6297 10.8096 37.5777 10.6604 37.5714 10.5059C37.5507 10.0556 37.8902 9.58042 38.4795 9.23384C38.4947 9.22519 38.5124 9.22229 38.5295 9.22567C38.5466 9.22904 38.5619 9.23847 38.5726 9.25221C38.9861 9.79676 39.1195 10.3653 38.9292 10.7739ZM38.1124 11.2471C38.0953 11.2392 38.0789 11.2308 38.0625 11.2224L38.0137 11.4662C38.0101 11.485 38.0141 11.5044 38.0247 11.5202C38.0353 11.5361 38.0518 11.5471 38.0705 11.5509C38.0892 11.5543 38.1085 11.5502 38.1243 11.5396C38.1401 11.5291 38.1512 11.5127 38.1552 11.4941L38.2027 11.2501L38.1472 11.254C38.1352 11.2542 38.1234 11.2519 38.1124 11.2471Z" fill="#64B930"/>
</g>
<g clip-path="url(#clip7_323_2311)">
<path d="M38.6541 16.0143C38.5937 16.1457 38.4979 16.2576 38.3775 16.3375L38.353 16.354C38.2319 16.4287 38.0886 16.4752 37.9276 16.4905L38.1741 15.2452C38.1758 15.2273 38.1708 15.2093 38.1601 15.1949C38.1493 15.1805 38.1336 15.1706 38.116 15.1671C38.0983 15.1636 38.08 15.1668 38.0646 15.1761C38.0492 15.1853 38.0378 15.2 38.0326 15.2172L37.7873 16.4628C37.6442 16.3875 37.5294 16.29 37.4457 16.1749C37.3546 16.05 37.3026 15.9008 37.2963 15.7463C37.2756 15.296 37.615 14.8208 38.2044 14.4742C38.2195 14.4656 38.2373 14.4627 38.2543 14.4661C38.2714 14.4694 38.2868 14.4789 38.2975 14.4926C38.7109 15.0371 38.8443 15.6057 38.6541 16.0143ZM37.8373 16.4875C37.8201 16.4796 37.8037 16.4712 37.7873 16.4628L37.7386 16.7066C37.735 16.7253 37.7389 16.7448 37.7495 16.7606C37.7602 16.7765 37.7766 16.7875 37.7954 16.7913C37.8141 16.7947 37.8334 16.7906 37.8492 16.78C37.865 16.7694 37.8761 16.7531 37.8801 16.7345L37.9276 16.4905L37.872 16.4944C37.8601 16.4946 37.8482 16.4923 37.8373 16.4875Z" fill="#64B930"/>
</g>
<g clip-path="url(#clip8_323_2311)">
<path d="M42.2411 11.508C42.2433 11.6526 42.2052 11.7949 42.1311 11.919L42.1161 11.9444C42.0391 12.0641 41.9299 12.1679 41.7913 12.2512L41.476 11.0215C41.4699 11.0046 41.4577 10.9906 41.4417 10.9822C41.4258 10.9738 41.4074 10.9716 41.3899 10.9761C41.3725 10.9806 41.3574 10.9914 41.3475 11.0064C41.3376 11.0214 41.3336 11.0396 41.3364 11.0574L41.6529 12.2868C41.4913 12.2806 41.3456 12.2423 41.2204 12.1745C41.0843 12.1012 40.973 11.9891 40.9006 11.8524C40.6875 11.4552 40.7886 10.88 41.1706 10.313C41.1805 10.2987 41.1953 10.2884 41.2121 10.284C41.229 10.2797 41.2469 10.2816 41.2625 10.2894C41.8705 10.6021 42.2363 11.0573 42.2411 11.508ZM41.7086 12.2875C41.6897 12.2878 41.6713 12.2873 41.6529 12.2868L41.7141 12.5277C41.719 12.5462 41.7309 12.562 41.7473 12.5717C41.7638 12.5814 41.7834 12.5843 41.8019 12.5796C41.8203 12.5746 41.8359 12.5626 41.8456 12.5462C41.8553 12.5298 41.8582 12.5103 41.8538 12.4918L41.7913 12.2512L41.7429 12.2787C41.7322 12.284 41.7205 12.2871 41.7086 12.2875Z" fill="#64B930"/>
</g>
<g clip-path="url(#clip9_323_2311)">
<path d="M40.6493 9.33329C40.6515 9.47782 40.6134 9.62012 40.5393 9.74424L40.5243 9.76965C40.4473 9.88936 40.3381 9.99316 40.1995 10.0764L39.8842 8.84671C39.8781 8.82981 39.8659 8.81581 39.8499 8.80743C39.834 8.79904 39.8156 8.79688 39.7981 8.80136C39.7807 8.80583 39.7656 8.81663 39.7557 8.83165C39.7458 8.84666 39.7418 8.86482 39.7446 8.8826L40.0611 10.112C39.8995 10.1059 39.7538 10.0675 39.6286 9.99977C39.4925 9.92644 39.3812 9.81434 39.3088 9.67768C39.0957 9.28049 39.1968 8.70528 39.5788 8.13823C39.5887 8.1239 39.6035 8.11363 39.6203 8.10929C39.6372 8.10495 39.6551 8.10684 39.6707 8.11462C40.2787 8.42732 40.6445 8.88258 40.6493 9.33329ZM40.1168 10.1127C40.0979 10.113 40.0795 10.1125 40.0611 10.112L40.1223 10.3529C40.1272 10.3714 40.1391 10.3872 40.1555 10.397C40.172 10.4067 40.1916 10.4095 40.2101 10.4048C40.2285 10.3998 40.2441 10.3878 40.2538 10.3714C40.2635 10.3551 40.2664 10.3356 40.262 10.3171L40.1995 10.0764L40.1511 10.1039C40.1404 10.1093 40.1287 10.1123 40.1168 10.1127Z" fill="#64B930"/>
</g>
<g clip-path="url(#clip10_323_2311)">
<path d="M43.0192 10.486C43.0207 10.5819 42.9955 10.6762 42.9463 10.7585L42.9364 10.7754C42.8853 10.8547 42.8129 10.9236 42.721 10.9788L42.512 10.1634C42.5079 10.1522 42.4998 10.1429 42.4892 10.1373C42.4787 10.1318 42.4664 10.1303 42.4549 10.1333C42.4433 10.1363 42.4333 10.1434 42.4267 10.1534C42.4201 10.1634 42.4175 10.1754 42.4193 10.1872L42.6292 11.0024C42.5221 10.9983 42.4255 10.9729 42.3425 10.9279C42.2522 10.8793 42.1784 10.805 42.1304 10.7144C41.9891 10.451 42.0561 10.0696 42.3094 9.69361C42.316 9.68411 42.3258 9.6773 42.337 9.67442C42.3482 9.67155 42.36 9.6728 42.3704 9.67795C42.7735 9.8853 43.0161 10.1872 43.0192 10.486ZM42.6661 11.0028C42.6536 11.003 42.6414 11.0027 42.6292 11.0024L42.6698 11.1621C42.673 11.1744 42.6809 11.1849 42.6918 11.1913C42.7027 11.1977 42.7157 11.1996 42.728 11.1965C42.7402 11.1932 42.7506 11.1852 42.757 11.1744C42.7634 11.1635 42.7654 11.1506 42.7624 11.1383L42.721 10.9788L42.6889 10.997C42.6818 11.0006 42.6741 11.0026 42.6661 11.0028Z" fill="#64B930"/>
</g>
<g clip-path="url(#clip11_323_2311)">
<path d="M41.3058 7.77618C41.3073 7.87201 41.2821 7.96637 41.233 8.04867L41.223 8.06552C41.1719 8.14489 41.0995 8.21372 41.0076 8.26894L40.7986 7.45354C40.7945 7.44234 40.7864 7.43305 40.7758 7.42749C40.7653 7.42194 40.753 7.4205 40.7415 7.42347C40.7299 7.42644 40.7199 7.4336 40.7133 7.44355C40.7068 7.45351 40.7041 7.46555 40.706 7.47734L40.9158 8.29253C40.8087 8.28845 40.7121 8.26303 40.6291 8.2181C40.5388 8.16948 40.465 8.09515 40.417 8.00453C40.2757 7.74117 40.3427 7.35977 40.596 6.98377C40.6026 6.97427 40.6124 6.96746 40.6236 6.96458C40.6348 6.96171 40.6466 6.96296 40.657 6.96811C41.0601 7.17545 41.3027 7.47733 41.3058 7.77618ZM40.9528 8.293C40.9402 8.29319 40.928 8.29286 40.9158 8.29253L40.9564 8.45228C40.9596 8.46453 40.9676 8.47502 40.9785 8.48146C40.9894 8.4879 41.0024 8.48979 41.0146 8.48669C41.0268 8.48335 41.0372 8.47541 41.0436 8.46455C41.05 8.45369 41.052 8.44076 41.0491 8.42849L41.0076 8.26894L40.9755 8.28716C40.9684 8.29072 40.9607 8.29271 40.9528 8.293Z" fill="#64B930"/>
</g>
<g clip-path="url(#clip12_323_2311)">
<path d="M30.6808 24.6063C30.6803 24.8595 30.6094 25.1075 30.4759 25.3227L30.4488 25.3667C30.3103 25.5741 30.116 25.7526 29.8707 25.8943L29.3556 23.731C29.3453 23.7012 29.3243 23.6763 29.2967 23.6612C29.2691 23.646 29.2368 23.6417 29.2061 23.649C29.1755 23.6563 29.1487 23.6748 29.1309 23.7008C29.1131 23.7268 29.1056 23.7585 29.1099 23.7897L29.6271 25.9524C29.3443 25.9367 29.0903 25.8652 28.8731 25.7428C28.6369 25.6102 28.4454 25.4105 28.3227 25.169C27.9615 24.467 28.1558 23.4626 28.842 22.481C28.8598 22.4562 28.8859 22.4386 28.9156 22.4316C28.9453 22.4245 28.9765 22.4283 29.0036 22.4424C30.0591 23.0084 30.686 23.8168 30.6808 24.6063ZM29.7247 25.9553C29.6916 25.9552 29.6594 25.9538 29.6271 25.9524L29.7271 26.3762C29.7351 26.4087 29.7555 26.4367 29.784 26.4543C29.8125 26.4718 29.8468 26.4773 29.8793 26.4697C29.9116 26.4614 29.9394 26.4409 29.9569 26.4126C29.9743 26.3842 29.9801 26.3501 29.9729 26.3175L29.8707 25.8943L29.785 25.9409C29.7662 25.95 29.7456 25.9549 29.7247 25.9553Z" fill="#64B930"/>
</g>
<g clip-path="url(#clip13_323_2311)">
<path d="M27.5411 23.6159C27.5407 23.8691 27.4697 24.1172 27.3362 24.3323L27.3091 24.3764C27.1707 24.5837 26.9763 24.7622 26.7311 24.9039L26.2159 22.7407C26.2056 22.7109 26.1847 22.686 26.157 22.6708C26.1294 22.6557 26.0971 22.6513 26.0665 22.6586C26.0358 22.666 26.009 22.6844 25.9912 22.7104C25.9734 22.7364 25.9659 22.7681 25.9702 22.7993L26.4875 24.962C26.2047 24.9464 25.9507 24.8749 25.7335 24.7524C25.4973 24.6199 25.3057 24.4202 25.1831 24.1787C24.8219 23.4766 25.0162 22.4723 25.7023 21.4906C25.7201 21.4659 25.7463 21.4483 25.7759 21.4412C25.8056 21.4341 25.8369 21.438 25.864 21.4521C26.9194 22.018 27.5464 22.8264 27.5411 23.6159ZM26.585 24.965C26.552 24.9649 26.5197 24.9635 26.4875 24.962L26.5875 25.3858C26.5954 25.4183 26.6158 25.4464 26.6443 25.4639C26.6728 25.4814 26.7071 25.487 26.7397 25.4794C26.772 25.4711 26.7998 25.4506 26.8172 25.4222C26.8347 25.3938 26.8404 25.3598 26.8332 25.3272L26.7311 24.9039L26.6454 24.9506C26.6265 24.9596 26.6059 24.9646 26.585 24.965Z" fill="#64B930"/>
</g>
<g clip-path="url(#clip14_323_2311)">
<path d="M34.1578 14.5159C34.2702 14.7233 34.3226 14.958 34.3091 15.1936L34.3065 15.2417C34.2855 15.473 34.2059 15.7057 34.0683 15.9309L32.6833 14.3895C32.6616 14.3697 32.6334 14.3587 32.604 14.3586C32.5746 14.3585 32.5463 14.3693 32.5245 14.3889C32.5026 14.4086 32.4889 14.4356 32.4859 14.4648C32.4829 14.494 32.4909 14.5233 32.5083 14.547L33.8948 16.0869C33.6563 16.2001 33.4165 16.2546 33.1842 16.2511C32.9319 16.2478 32.6861 16.1697 32.4782 16.0266C31.8699 15.6127 31.5817 14.7041 31.7062 13.595C31.7098 13.5668 31.7234 13.5408 31.7445 13.5218C31.7657 13.5028 31.793 13.492 31.8214 13.4915C32.9374 13.4847 33.8105 13.8673 34.1578 14.5159ZM33.9759 16.0459C33.9488 16.0606 33.9218 16.0737 33.8948 16.0869L34.1654 16.3893C34.1863 16.4124 34.2155 16.4263 34.2467 16.4279C34.2778 16.4296 34.3083 16.4189 34.3316 16.3981C34.3543 16.377 34.368 16.3478 34.3696 16.3168C34.3712 16.2858 34.3608 16.2553 34.3404 16.2319L34.0683 15.9309L34.0189 16.0072C34.0075 16.0231 33.9929 16.0363 33.9759 16.0459Z" fill="#64B930"/>
</g>
<g clip-path="url(#clip15_323_2311)">
<path d="M32.4702 23.0645C32.5385 23.1905 32.5703 23.3331 32.5621 23.4762L32.5606 23.5054C32.5478 23.646 32.4995 23.7873 32.4158 23.9241L31.5745 22.9878C31.5613 22.9757 31.5441 22.969 31.5263 22.969C31.5084 22.9689 31.4912 22.9755 31.478 22.9874C31.4647 22.9993 31.4563 23.0157 31.4545 23.0335C31.4527 23.0512 31.4576 23.069 31.4681 23.0834L32.3104 24.0189C32.1656 24.0877 32.0199 24.1208 31.8788 24.1187C31.7255 24.1167 31.5762 24.0692 31.4499 23.9823C31.0803 23.7308 30.9052 23.1788 30.9809 22.5051C30.983 22.4879 30.9913 22.4721 31.0041 22.4606C31.017 22.449 31.0336 22.4425 31.0508 22.4422C31.7288 22.4381 32.2593 22.6705 32.4702 23.0645ZM32.3597 23.994C32.3433 24.0029 32.3269 24.0109 32.3104 24.0189L32.4748 24.2026C32.4875 24.2166 32.5053 24.2251 32.5242 24.2261C32.5431 24.2271 32.5617 24.2206 32.5758 24.208C32.5896 24.1951 32.5979 24.1774 32.5989 24.1586C32.5999 24.1397 32.5935 24.1212 32.5811 24.107L32.4158 23.9241L32.3858 23.9705C32.3789 23.9801 32.37 23.9881 32.3597 23.994Z" fill="#64B930"/>
</g>
<g clip-path="url(#clip16_323_2311)">
<path d="M30.1763 21.2315C30.2196 21.3114 30.2398 21.4018 30.2346 21.4926L30.2336 21.5111C30.2255 21.6003 30.1949 21.6899 30.1418 21.7767L29.6081 21.1828C29.5998 21.1751 29.5889 21.1709 29.5776 21.1708C29.5662 21.1708 29.5553 21.175 29.5469 21.1825C29.5385 21.1901 29.5332 21.2005 29.532 21.2118C29.5309 21.223 29.534 21.2343 29.5407 21.2434L30.075 21.8369C29.9831 21.8804 29.8907 21.9015 29.8012 21.9001C29.7039 21.8988 29.6092 21.8687 29.5291 21.8136C29.2947 21.6541 29.1836 21.304 29.2316 20.8766C29.233 20.8657 29.2382 20.8557 29.2464 20.8484C29.2545 20.8411 29.265 20.8369 29.276 20.8367C29.706 20.8341 30.0425 20.9815 30.1763 21.2315ZM30.1062 21.821C30.0958 21.8267 30.0854 21.8318 30.075 21.8369L30.1792 21.9534C30.1873 21.9623 30.1986 21.9676 30.2106 21.9682C30.2225 21.9689 30.2343 21.9648 30.2433 21.9568C30.252 21.9486 30.2573 21.9374 30.2579 21.9254C30.2586 21.9135 30.2545 21.9017 30.2467 21.8927L30.1418 21.7767L30.1228 21.8061C30.1184 21.8122 30.1127 21.8173 30.1062 21.821Z" fill="#64B930"/>
</g>
<path d="M28.5159 20.8207C28.5842 20.9467 28.616 21.0893 28.6078 21.2324L28.6062 21.2616C28.5935 21.4022 28.5451 21.5435 28.4615 21.6803L27.6201 20.7439C27.6069 20.7319 27.5898 20.7252 27.5719 20.7251C27.5541 20.7251 27.5369 20.7316 27.5236 20.7436C27.5104 20.7555 27.502 20.7719 27.5002 20.7897C27.4984 20.8074 27.5032 20.8252 27.5138 20.8396L28.3561 21.7751C28.2112 21.8438 28.0656 21.877 27.9244 21.8749C27.7711 21.8729 27.6218 21.8254 27.4955 21.7384C27.126 21.487 26.9509 20.935 27.0265 20.2613C27.0287 20.2441 27.0369 20.2283 27.0498 20.2168C27.0626 20.2052 27.0792 20.1987 27.0965 20.1984C27.7745 20.1943 28.3049 20.4267 28.5159 20.8207ZM28.4054 21.7502C28.3889 21.7591 28.3725 21.7671 28.3561 21.7751L28.5205 21.9588C28.5332 21.9728 28.551 21.9813 28.5699 21.9823C28.5888 21.9833 28.6073 21.9768 28.6215 21.9642C28.6353 21.9513 28.6435 21.9336 28.6445 21.9148C28.6455 21.8959 28.6392 21.8774 28.6268 21.8632L28.4615 21.6803L28.4315 21.7267C28.4246 21.7363 28.4157 21.7443 28.4054 21.7502Z" fill="#64B930"/>
<g clip-path="url(#clip17_323_2311)">
<path d="M22.8445 25.8368C23.0205 25.8784 23.1761 25.966 23.3098 26.0833C23.5269 26.2739 23.695 26.5371 23.8491 26.8169C24.1574 27.3765 24.4203 28.0062 24.7739 28.2711C25.1058 28.5198 25.4207 28.5897 25.6912 28.5477C25.8075 28.5297 25.9165 28.4902 26.0154 28.4333C25.8024 27.6167 25.1921 26.7982 24.4384 26.4703C25.2598 26.6372 25.9863 27.2285 26.3516 28.11L26.2856 28.2056C26.3082 28.1786 26.3294 28.1507 26.3493 28.1217C26.663 27.6663 26.6791 26.9293 26.0436 26.2842C25.7517 25.9877 25.2047 25.6592 24.5746 25.5411C24.0295 25.4388 23.4247 25.4886 22.8445 25.8368L22.8445 25.8368ZM26.9939 25.7953C27.0671 25.9249 27.1055 26.0676 27.1151 26.2139C27.1318 26.4697 27.0726 26.7385 26.9945 27.0083C26.8383 27.5479 26.6126 28.1013 26.6666 28.4783C26.7179 28.8355 26.8679 29.0698 27.0584 29.2092C27.1399 29.2688 27.2319 29.3127 27.3296 29.3385C27.6983 28.7009 27.8239 27.8218 27.5613 27.1552C27.9655 27.7654 28.0505 28.5777 27.7356 29.3479C28.2006 29.2546 28.6532 28.8157 28.659 28.0355C28.6617 27.674 28.5269 27.1329 28.211 26.6712C27.9428 26.2794 27.5495 25.9429 26.9939 25.7953L26.9939 25.7953ZM23.1401 29.4217C23.3534 29.9556 23.7348 30.306 24.156 30.5253C24.6522 30.7835 25.2057 30.8523 25.5642 30.8062C26.3379 30.7067 26.7189 30.2047 26.7556 29.7319C26.029 30.1369 25.2125 30.1501 24.5583 29.822C25.2516 30.0027 26.1091 29.7725 26.6978 29.3297C26.6605 29.2359 26.606 29.1498 26.537 29.076C26.3758 28.9036 26.1247 28.7829 25.764 28.7749C25.3833 28.7665 24.8613 29.0571 24.3444 29.277C24.086 29.3869 23.8265 29.4781 23.5706 29.4922C23.4241 29.5003 23.2777 29.4789 23.1402 29.4217L23.1401 29.4217Z" fill="#64B930"/>
</g>
<g clip-path="url(#clip18_323_2311)">
<path d="M41.9878 3.49995C42.1579 3.56111 42.3028 3.66562 42.4224 3.79722C42.6167 4.01099 42.7541 4.29141 42.8758 4.58677C43.1192 5.17752 43.3096 5.83276 43.6312 6.1358C43.933 6.42023 44.2381 6.5251 44.5115 6.51377C44.6292 6.50892 44.7419 6.48197 44.8466 6.4365C44.7268 5.60113 44.2124 4.71919 43.5003 4.3087C44.2977 4.56684 44.9532 5.23611 45.2171 6.15311L45.1407 6.24062C45.1661 6.21641 45.1904 6.19099 45.2134 6.16445C45.5763 5.74723 45.6752 5.01673 45.1163 4.30421C44.8595 3.97684 44.353 3.58889 43.7401 3.40062C43.21 3.23777 42.6034 3.21921 41.9878 3.49998L41.9878 3.49995ZM46.1155 3.92525C46.1737 4.06225 46.1958 4.20837 46.1889 4.35486C46.1767 4.61091 46.0877 4.87134 45.9797 5.13066C45.7638 5.64928 45.4773 6.17379 45.4886 6.5545C45.4994 6.91514 45.6221 7.16487 45.7958 7.32474C45.87 7.3932 45.9565 7.44712 46.0506 7.48372C46.4888 6.89162 46.7124 6.03225 46.5264 5.34032C46.8594 5.99216 46.8525 6.80886 46.4531 7.53871C46.9256 7.49834 47.4247 7.11315 47.5182 6.33852C47.5615 5.97963 47.4884 5.42676 47.2264 4.93253C47.004 4.51298 46.6509 4.13441 46.1155 3.92527L46.1155 3.92525ZM41.8784 7.09534C42.0303 7.64987 42.3698 8.04096 42.7638 8.30617C43.2277 8.61855 43.77 8.74912 44.1314 8.74362C44.9114 8.7318 45.3464 8.27583 45.4361 7.8101C44.6685 8.13082 43.8558 8.05212 43.2426 7.65253C43.9112 7.9101 44.7891 7.77778 45.4238 7.40402C45.3974 7.30655 45.3529 7.2149 45.2927 7.13383C45.1519 6.94434 44.9159 6.79621 44.5584 6.74773C44.1811 6.69656 43.6297 6.92659 43.0914 7.08697C42.8222 7.16718 42.5541 7.22856 42.2982 7.21381C42.1517 7.20537 42.0087 7.16764 41.8785 7.09534L41.8784 7.09534Z" fill="#64B930"/>
<g clip-path="url(#clip19_323_2311)">
<path d="M42.4161 5.32193C42.4184 5.46647 42.3803 5.60877 42.3062 5.73288L42.2912 5.75829C42.2142 5.878 42.105 5.9818 41.9664 6.06509L41.6511 4.83536C41.6449 4.81846 41.6327 4.80445 41.6168 4.79607C41.6009 4.78769 41.5824 4.78552 41.565 4.79C41.5476 4.79447 41.5324 4.80527 41.5225 4.82029C41.5126 4.8353 41.5087 4.85347 41.5114 4.87124L41.8279 6.10066C41.6663 6.0945 41.5206 6.05618 41.3955 5.98841C41.2593 5.91508 41.148 5.80298 41.0757 5.66632C40.8626 5.26913 40.9636 4.69393 41.3456 4.12687C41.3556 4.11254 41.3703 4.10227 41.3872 4.09793C41.4041 4.09359 41.4219 4.09549 41.4375 4.10326C42.0456 4.41596 42.4114 4.87122 42.4161 5.32193ZM41.8836 6.10137C41.8648 6.10165 41.8463 6.10116 41.8279 6.10066L41.8892 6.34159C41.894 6.36006 41.9059 6.37588 41.9224 6.3856C41.9388 6.39531 41.9584 6.39815 41.977 6.39349C41.9953 6.38844 42.011 6.37647 42.0207 6.36009C42.0303 6.34371 42.0333 6.32421 42.0289 6.3057L41.9664 6.06509L41.9179 6.09256C41.9073 6.09793 41.8956 6.10093 41.8836 6.10137Z" fill="#64B930"/>
</g>
</g>
<g clip-path="url(#clip20_323_2311)">
<path d="M34.4551 11.1111C34.5625 11.1651 34.6498 11.2456 34.7182 11.342C34.8294 11.4987 34.8976 11.6948 34.9543 11.8994C35.0677 12.3088 35.141 12.7566 35.3291 12.9823C35.5055 13.1942 35.6985 13.2878 35.8799 13.3022C35.9579 13.3084 36.0345 13.2996 36.1072 13.278C36.095 12.717 35.8259 12.0937 35.3888 11.7659C35.8945 12 36.2736 12.4942 36.3744 13.1206L36.317 13.1722C36.3357 13.1583 36.3538 13.1434 36.3711 13.1277C36.644 12.8814 36.7677 12.4071 36.4558 11.8921C36.3125 11.6555 36.0092 11.3589 35.6197 11.1857C35.2828 11.0358 34.8839 10.975 34.4551 11.1111L34.4551 11.1111ZM37.1456 11.7219C37.173 11.817 37.176 11.9152 37.1597 12.0113C37.1311 12.1794 37.0516 12.3441 36.9596 12.5067C36.7756 12.8317 36.5445 13.155 36.5216 13.4072C36.4998 13.6461 36.5608 13.8208 36.6627 13.9402C36.7062 13.9913 36.759 14.0338 36.8182 14.0655C37.1547 13.7097 37.3711 13.1604 37.3036 12.6888C37.4713 13.1457 37.4015 13.6842 37.0794 14.134C37.3946 14.1451 37.7548 13.9308 37.8784 13.427C37.9357 13.1935 37.9317 12.8228 37.7983 12.4756C37.685 12.1809 37.4823 11.9028 37.1456 11.7219L37.1456 11.7219ZM34.0954 13.4755C34.1513 13.8536 34.3441 14.1389 34.5829 14.3455C34.8642 14.5888 35.2117 14.7183 35.4507 14.7436C35.9665 14.7982 36.29 14.532 36.3865 14.2318C35.8542 14.3821 35.324 14.2651 34.9512 13.9523C35.372 14.1758 35.962 14.1587 36.4108 13.9628C36.4012 13.8963 36.3792 13.8323 36.3459 13.7739C36.2681 13.6376 36.1242 13.5209 35.8921 13.4604C35.6471 13.3964 35.2648 13.5041 34.8967 13.5669C34.7126 13.5984 34.5307 13.6174 34.363 13.5872C34.267 13.57 34.1756 13.5336 34.0954 13.4755L34.0954 13.4755Z" fill="#64B930"/>
</g>
<g clip-path="url(#clip21_323_2311)">
<path d="M29.9622 17.0011C30.1382 17.0428 30.2938 17.1303 30.4275 17.2476C30.6446 17.4382 30.8126 17.7014 30.9668 17.9812C31.2751 18.5408 31.538 19.1705 31.8916 19.4355C32.2235 19.6842 32.5384 19.7541 32.8088 19.7121C32.9252 19.694 33.0341 19.6546 33.1331 19.5976C32.9201 18.781 32.3098 17.9625 31.556 17.6347C32.3775 17.8015 33.104 18.3928 33.4693 19.2744L33.4033 19.3699C33.4258 19.343 33.4471 19.315 33.4669 19.286C33.7807 18.8307 33.7967 18.0937 33.1613 17.4485C32.8694 17.1521 32.3224 16.8236 31.6923 16.7054C31.1471 16.6032 30.5423 16.653 29.9622 17.0012L29.9622 17.0011ZM34.1115 16.9596C34.1848 17.0892 34.2232 17.2319 34.2328 17.3782C34.2495 17.634 34.1903 17.9028 34.1122 18.1726C33.956 18.7122 33.7302 19.2656 33.7843 19.6427C33.8356 19.9998 33.9855 20.2342 34.1761 20.3735C34.2576 20.4332 34.3496 20.477 34.4472 20.5028C34.816 19.8652 34.9416 18.9861 34.6789 18.3195C35.0832 18.9298 35.1681 19.7421 34.8533 20.5122C35.3183 20.4189 35.7709 19.9801 35.7767 19.1998C35.7794 18.8384 35.6446 18.2972 35.3287 17.8356C35.0605 17.4437 34.6671 17.1072 34.1116 16.9596L34.1115 16.9596ZM30.2578 20.586C30.471 21.12 30.8524 21.4704 31.2737 21.6896C31.7698 21.9478 32.3234 22.0166 32.6819 21.9705C33.4556 21.8711 33.8365 21.3691 33.8733 20.8962C33.1467 21.3012 32.3302 21.3144 31.676 20.9863C32.3693 21.167 33.2268 20.9368 33.8154 20.4941C33.7782 20.4002 33.7237 20.3141 33.6547 20.2404C33.4935 20.0679 33.2424 19.9472 32.8817 19.9393C32.501 19.9309 31.979 20.2214 31.4621 20.4413C31.2037 20.5513 30.9441 20.6424 30.6882 20.6565C30.5417 20.6646 30.3953 20.6432 30.2578 20.586L30.2578 20.586Z" fill="#64B930"/>
<g clip-path="url(#clip22_323_2311)">
<path d="M30.6155 18.5646C30.6838 18.6907 30.7156 18.8332 30.7074 18.9763L30.7058 19.0056C30.6931 19.1461 30.6447 19.2875 30.5611 19.4243L29.7197 18.4879C29.7066 18.4759 29.6894 18.4692 29.6715 18.4691C29.6537 18.469 29.6365 18.4756 29.6232 18.4875C29.61 18.4994 29.6016 18.5159 29.5998 18.5336C29.598 18.5514 29.6028 18.5692 29.6134 18.5835L30.4557 19.5191C30.3108 19.5878 30.1652 19.6209 30.024 19.6188C29.8707 19.6168 29.7214 19.5693 29.5951 19.4824C29.2256 19.231 29.0505 18.679 29.1261 18.0052C29.1283 17.9881 29.1365 17.9723 29.1494 17.9607C29.1622 17.9492 29.1788 17.9426 29.1961 17.9423C29.8741 17.9382 30.4045 18.1706 30.6155 18.5646ZM30.505 19.4941C30.4885 19.503 30.4721 19.5111 30.4557 19.5191L30.6201 19.7028C30.6328 19.7168 30.6506 19.7252 30.6695 19.7262C30.6884 19.7272 30.7069 19.7207 30.7211 19.7081C30.7349 19.6953 30.7432 19.6775 30.7442 19.6587C30.7451 19.6399 30.7388 19.6214 30.7264 19.6071L30.5611 19.4243L30.5311 19.4706C30.5242 19.4803 30.5153 19.4883 30.505 19.4941Z" fill="#64B930"/>
</g>
</g>
<g clip-path="url(#clip23_323_2311)">
<path d="M56.806 4.45863C56.7256 4.53092 56.6266 4.57938 56.5201 4.59857L56.4984 4.60258C56.393 4.61797 56.2808 4.60738 56.1656 4.5701L56.7046 3.78778C56.7111 3.776 56.713 3.76221 56.7099 3.74911C56.7068 3.73601 56.699 3.72453 56.6879 3.7169C56.6768 3.70927 56.6633 3.70603 56.6499 3.70783C56.6366 3.70962 56.6244 3.71631 56.6157 3.7266L56.0775 4.50946C56.0016 4.41525 55.9516 4.3142 55.9283 4.21026C55.9028 4.0974 55.9113 3.97949 55.9529 3.87149C56.0723 3.55604 56.4465 3.33034 56.9543 3.2672C56.9672 3.26575 56.9803 3.26902 56.991 3.27642C57.0018 3.28381 57.0095 3.29483 57.0128 3.30745C57.1351 3.80424 57.058 4.23441 56.806 4.45863ZM56.1045 4.54123C56.0951 4.53072 56.0863 4.52009 56.0775 4.50946L55.9717 4.66243C55.9636 4.67424 55.9606 4.68875 55.9632 4.7028C55.9658 4.71686 55.9738 4.72932 55.9855 4.73747C55.9974 4.74535 56.0119 4.7483 56.0259 4.74572C56.0399 4.74313 56.0523 4.73521 56.0606 4.72361L56.1656 4.5701L56.1263 4.55626C56.1181 4.55288 56.1106 4.54775 56.1045 4.54123Z" fill="#64B930"/>
</g>
<g clip-path="url(#clip24_323_2311)">
<path d="M73.8541 9.1385C73.7737 9.2108 73.6747 9.25926 73.5682 9.27845L73.5465 9.28246C73.4411 9.29784 73.3289 9.28726 73.2137 9.24998L73.7527 8.46766C73.7592 8.45587 73.7611 8.44209 73.758 8.42899C73.7549 8.41589 73.7471 8.40441 73.736 8.39678C73.7249 8.38914 73.7114 8.38591 73.698 8.3877C73.6847 8.3895 73.6725 8.39619 73.6638 8.40647L73.1256 9.18933C73.0497 9.09512 72.9997 8.99408 72.9764 8.89014C72.9509 8.77727 72.9594 8.65937 73.001 8.55136C73.1204 8.23591 73.4946 8.01022 74.0024 7.94707C74.0153 7.94563 74.0284 7.9489 74.0391 7.95629C74.0498 7.96369 74.0576 7.9747 74.0608 7.98732C74.1832 8.48412 74.1061 8.91429 73.8541 9.1385ZM73.1526 9.22111C73.1432 9.2106 73.1344 9.19997 73.1256 9.18933L73.0198 9.34231C73.0117 9.35412 73.0087 9.36863 73.0113 9.38268C73.0139 9.39673 73.0219 9.40919 73.0336 9.41735C73.0455 9.42522 73.0599 9.42818 73.0739 9.42559C73.088 9.42301 73.1004 9.41508 73.1087 9.40349L73.2137 9.24998L73.1744 9.23614C73.1661 9.23275 73.1587 9.22763 73.1526 9.22111Z" fill="#64B930"/>
</g>
<g clip-path="url(#clip25_323_2311)">
<path d="M72.517 7.13283C72.4365 7.20513 72.3375 7.25359 72.2311 7.27278L72.2093 7.27679C72.1039 7.29217 71.9917 7.28159 71.8766 7.24431L72.4155 6.46199C72.422 6.4502 72.4239 6.43642 72.4208 6.42332C72.4178 6.41022 72.4099 6.39874 72.3988 6.39111C72.3877 6.38348 72.3742 6.38024 72.3609 6.38203C72.3475 6.38383 72.3353 6.39052 72.3266 6.40081L71.7885 7.18366C71.7125 7.08945 71.6625 6.98841 71.6393 6.88447C71.6137 6.7716 71.6223 6.6537 71.6638 6.54569C71.7832 6.23024 72.1575 6.00455 72.6652 5.9414C72.6782 5.93996 72.6912 5.94323 72.7019 5.95063C72.7127 5.95802 72.7204 5.96903 72.7237 5.98166C72.8461 6.47845 72.769 6.90862 72.517 7.13283ZM71.8154 7.21544C71.806 7.20493 71.7972 7.1943 71.7885 7.18366L71.6826 7.33664C71.6746 7.34845 71.6715 7.36296 71.6741 7.37701C71.6767 7.39106 71.6847 7.40352 71.6965 7.41168C71.7083 7.41956 71.7228 7.42251 71.7368 7.41993C71.7508 7.41734 71.7632 7.40941 71.7715 7.39782L71.8766 7.24431L71.8373 7.23047C71.829 7.22709 71.8215 7.22196 71.8154 7.21544Z" fill="#64B930"/>
</g>
<g clip-path="url(#clip26_323_2311)">
<path d="M66.1657 9.1385C66.0852 9.2108 65.9862 9.25926 65.8797 9.27845L65.858 9.28246C65.7526 9.29784 65.6404 9.28726 65.5253 9.24998L66.0642 8.46766C66.0707 8.45587 66.0726 8.44209 66.0695 8.42899C66.0664 8.41589 66.0586 8.40441 66.0475 8.39678C66.0364 8.38914 66.0229 8.38591 66.0095 8.3877C65.9962 8.3895 65.984 8.39619 65.9753 8.40647L65.4371 9.18933C65.3612 9.09512 65.3112 8.99408 65.2879 8.89014C65.2624 8.77727 65.2709 8.65937 65.3125 8.55136C65.4319 8.23591 65.8061 8.01022 66.3139 7.94707C66.3268 7.94563 66.3399 7.9489 66.3506 7.95629C66.3614 7.96369 66.3691 7.9747 66.3724 7.98732C66.4948 8.48412 66.4176 8.91429 66.1657 9.1385ZM65.4641 9.22111C65.4547 9.2106 65.4459 9.19997 65.4371 9.18933L65.3313 9.34231C65.3232 9.35412 65.3202 9.36863 65.3228 9.38268C65.3254 9.39673 65.3334 9.40919 65.3451 9.41735C65.357 9.42522 65.3715 9.42818 65.3855 9.42559C65.3995 9.42301 65.4119 9.41508 65.4202 9.40349L65.5253 9.24998L65.4859 9.23614C65.4777 9.23275 65.4702 9.22763 65.4641 9.22111Z" fill="#64B930"/>
</g>
<g clip-path="url(#clip27_323_2311)">
<path d="M61.8202 7.13283C61.7397 7.20513 61.6407 7.25359 61.5343 7.27278L61.5126 7.27679C61.4072 7.29217 61.2949 7.28159 61.1798 7.24431L61.7188 6.46199C61.7253 6.4502 61.7272 6.43642 61.7241 6.42332C61.721 6.41022 61.7131 6.39874 61.702 6.39111C61.6909 6.38348 61.6774 6.38024 61.6641 6.38203C61.6507 6.38383 61.6385 6.39052 61.6299 6.40081L61.0917 7.18366C61.0157 7.08945 60.9658 6.98841 60.9425 6.88447C60.9169 6.7716 60.9255 6.6537 60.967 6.54569C61.0864 6.23024 61.4607 6.00455 61.9684 5.9414C61.9814 5.93996 61.9944 5.94323 62.0052 5.95063C62.0159 5.95802 62.0236 5.96903 62.0269 5.98166C62.1493 6.47845 62.0722 6.90862 61.8202 7.13283ZM61.1187 7.21544C61.1092 7.20493 61.1005 7.1943 61.0917 7.18366L60.9858 7.33664C60.9778 7.34845 60.9747 7.36296 60.9773 7.37701C60.9799 7.39106 60.988 7.40352 60.9997 7.41168C61.0116 7.41956 61.026 7.42251 61.04 7.41993C61.054 7.41734 61.0665 7.40941 61.0747 7.39782L61.1798 7.24431L61.1405 7.23047C61.1322 7.22709 61.1248 7.22196 61.1187 7.21544Z" fill="#64B930"/>
</g>
<g clip-path="url(#clip28_323_2311)">
<path d="M48.5365 5.05129C48.5169 5.15766 48.468 5.25646 48.3953 5.33662L48.3806 5.35305C48.3065 5.42954 48.2111 5.48964 48.0971 5.53034L48.0468 4.58167C48.0448 4.56836 48.0379 4.55629 48.0274 4.54779C48.017 4.5393 48.0038 4.53499 47.9903 4.53571C47.9769 4.53643 47.9642 4.54213 47.9547 4.55169C47.9452 4.56125 47.9397 4.57399 47.9391 4.58744L47.9903 5.53606C47.8726 5.50775 47.7714 5.45818 47.6895 5.39004C47.6004 5.31619 47.5353 5.21756 47.5023 5.10664C47.4044 4.78385 47.5632 4.3767 47.927 4.01688C47.9364 4.00783 47.9487 4.00246 47.9617 4.00177C47.9748 4.00107 47.9876 4.00509 47.9979 4.01309C48.398 4.33202 48.5993 4.7199 48.5365 5.05129ZM48.0311 5.54478C48.0172 5.5422 48.0037 5.53913 47.9903 5.53606L47.9998 5.72184C48.0006 5.73611 48.007 5.74947 48.0177 5.75902C48.0283 5.76857 48.0423 5.77354 48.0565 5.77284C48.0707 5.77184 48.084 5.76536 48.0935 5.75477C48.103 5.74418 48.1081 5.7303 48.1075 5.71607L48.0971 5.53034L48.0575 5.54336C48.0489 5.54573 48.0399 5.54621 48.0311 5.54478Z" fill="#64B930"/>
</g>
<g clip-path="url(#clip29_323_2311)">
<path d="M89.8996 18.8325C89.8191 18.9048 89.7201 18.9533 89.6136 18.9725L89.5919 18.9765C89.4865 18.9919 89.3743 18.9813 89.2591 18.944L89.7981 18.1617C89.8046 18.1499 89.8065 18.1361 89.8034 18.123C89.8003 18.1099 89.7925 18.0985 89.7814 18.0908C89.7703 18.0832 89.7568 18.08 89.7434 18.0817C89.7301 18.0835 89.7179 18.0902 89.7092 18.1005L89.171 18.8834C89.0951 18.7892 89.0451 18.6881 89.0218 18.5842C88.9963 18.4713 89.0048 18.3534 89.0464 18.2454C89.1658 17.93 89.54 17.7043 90.0478 17.6411C90.0607 17.6397 90.0738 17.6429 90.0845 17.6503C90.0953 17.6577 90.103 17.6687 90.1063 17.6814C90.2286 18.1782 90.1515 18.6083 89.8996 18.8325ZM89.198 18.9152C89.1886 18.9046 89.1798 18.894 89.171 18.8834L89.0652 19.0364C89.0571 19.0482 89.0541 19.0627 89.0567 19.0767C89.0593 19.0908 89.0673 19.1032 89.079 19.1114C89.0909 19.1193 89.1054 19.1222 89.1194 19.1196C89.1334 19.1171 89.1458 19.1091 89.1541 19.0975L89.2591 18.944L89.2198 18.9302C89.2116 18.9268 89.2041 18.9217 89.198 18.9152Z" fill="#64B930"/>
</g>
<g clip-path="url(#clip30_323_2311)">
<path d="M87.8937 26.8552C87.8132 26.9275 87.7142 26.976 87.6078 26.9952L87.586 26.9992C87.4806 27.0146 87.3684 27.004 87.2533 26.9667L87.7922 26.1844C87.7988 26.1726 87.8006 26.1588 87.7976 26.1457C87.7945 26.1326 87.7866 26.1211 87.7755 26.1135C87.7644 26.1059 87.7509 26.1026 87.7376 26.1044C87.7242 26.1062 87.712 26.1129 87.7033 26.1232L87.1652 26.906C87.0892 26.8118 87.0392 26.7108 87.016 26.6069C86.9904 26.494 86.999 26.3761 87.0405 26.2681C87.1599 25.9526 87.5342 25.7269 88.0419 25.6638C88.0549 25.6623 88.0679 25.6656 88.0787 25.673C88.0894 25.6804 88.0971 25.6914 88.1004 25.704C88.2228 26.2008 88.1457 26.631 87.8937 26.8552ZM87.1921 26.9378C87.1827 26.9273 87.1739 26.9167 87.1652 26.906L87.0593 27.059C87.0513 27.0708 87.0482 27.0853 87.0508 27.0994C87.0534 27.1134 87.0614 27.1259 87.0732 27.1341C87.085 27.1419 87.0995 27.1449 87.1135 27.1423C87.1275 27.1397 87.14 27.1318 87.1482 27.1202L87.2533 26.9667L87.214 26.9529C87.2057 26.9495 87.1983 26.9443 87.1921 26.9378Z" fill="#64B930"/>
</g>
<g clip-path="url(#clip31_323_2311)">
<path d="M91.9052 21.5068C91.8247 21.5791 91.7257 21.6275 91.6192 21.6467L91.5975 21.6507C91.4921 21.6661 91.3799 21.6555 91.2648 21.6182L91.8037 20.8359C91.8102 20.8241 91.8121 20.8103 91.809 20.7972C91.8059 20.7841 91.7981 20.7727 91.787 20.765C91.7759 20.7574 91.7624 20.7542 91.749 20.756C91.7357 20.7577 91.7235 20.7644 91.7148 20.7747L91.1766 21.5576C91.1007 21.4634 91.0507 21.3623 91.0274 21.2584C91.0019 21.1455 91.0104 21.0276 91.052 20.9196C91.1714 20.6042 91.5456 20.3785 92.0534 20.3153C92.0663 20.3139 92.0794 20.3172 92.0901 20.3245C92.1009 20.3319 92.1086 20.343 92.1119 20.3556C92.2343 20.8524 92.1571 21.2825 91.9052 21.5068ZM91.2036 21.5894C91.1942 21.5789 91.1854 21.5682 91.1766 21.5576L91.0708 21.7106C91.0627 21.7224 91.0597 21.7369 91.0623 21.7509C91.0649 21.765 91.0729 21.7774 91.0847 21.7856C91.0965 21.7935 91.111 21.7964 91.125 21.7938C91.139 21.7913 91.1514 21.7833 91.1597 21.7717L91.2648 21.6182L91.2254 21.6044C91.2172 21.601 91.2097 21.5959 91.2036 21.5894Z" fill="#64B930"/>
</g>
<g clip-path="url(#clip32_323_2311)">
<path d="M91.0228 24.0474C90.8941 24.1631 90.7357 24.2406 90.5654 24.2713L90.5307 24.2777C90.3621 24.3023 90.1826 24.2854 89.9984 24.2257L90.8605 22.9744C90.8709 22.9556 90.8739 22.9335 90.869 22.9126C90.8641 22.8916 90.8515 22.8733 90.8338 22.8611C90.816 22.8488 90.7944 22.8437 90.773 22.8465C90.7517 22.8494 90.7322 22.8601 90.7183 22.8766L89.8575 24.1287C89.736 23.978 89.6561 23.8164 89.6188 23.6502C89.578 23.4697 89.5917 23.2811 89.6581 23.1083C89.8491 22.6038 90.4477 22.2428 91.2598 22.1418C91.2806 22.1395 91.3014 22.1447 91.3186 22.1565C91.3358 22.1683 91.3481 22.186 91.3534 22.2061C91.5491 23.0008 91.4258 23.6888 91.0228 24.0474ZM89.9006 24.1796C89.8856 24.1628 89.8715 24.1457 89.8575 24.1287L89.6882 24.3734C89.6753 24.3923 89.6704 24.4155 89.6746 24.438C89.6787 24.4605 89.6916 24.4804 89.7104 24.4934C89.7293 24.506 89.7525 24.5108 89.7749 24.5066C89.7973 24.5025 89.8172 24.4898 89.8304 24.4713L89.9984 24.2257L89.9356 24.2036C89.9223 24.1982 89.9104 24.19 89.9006 24.1796Z" fill="#64B930"/>
</g>
<g clip-path="url(#clip33_323_2311)">
<path d="M88.0142 20.0361C87.8855 20.1517 87.7272 20.2292 87.5569 20.2599L87.5221 20.2664C87.3536 20.291 87.174 20.274 86.9899 20.2144L87.852 18.9631C87.8624 18.9442 87.8654 18.9222 87.8605 18.9012C87.8555 18.8803 87.8429 18.8619 87.8252 18.8497C87.8075 18.8375 87.7858 18.8323 87.7645 18.8352C87.7432 18.8381 87.7236 18.8488 87.7098 18.8652L86.849 20.1174C86.7275 19.9667 86.6475 19.8051 86.6103 19.6388C86.5695 19.4583 86.5831 19.2697 86.6496 19.097C86.8406 18.5924 87.4392 18.2314 88.2513 18.1304C88.272 18.1281 88.2929 18.1334 88.3101 18.1452C88.3272 18.157 88.3396 18.1746 88.3448 18.1948C88.5406 18.9894 88.4173 19.6775 88.0142 20.0361ZM86.8921 20.1682C86.877 20.1514 86.863 20.1344 86.849 20.1174L86.6796 20.3621C86.6668 20.381 86.6619 20.4042 86.666 20.4267C86.6702 20.4491 86.683 20.4691 86.7018 20.4821C86.7208 20.4947 86.7439 20.4994 86.7663 20.4953C86.7887 20.4912 86.8086 20.4785 86.8218 20.4599L86.9899 20.2144L86.927 20.1923C86.9138 20.1869 86.9019 20.1787 86.8921 20.1682Z" fill="#64B930"/>
</g>
<g clip-path="url(#clip34_323_2311)">
<path d="M83.0001 13.6849C82.8714 13.8005 82.713 13.878 82.5427 13.9087L82.508 13.9151C82.3394 13.9397 82.1599 13.9228 81.9757 13.8632L82.8378 12.6118C82.8482 12.593 82.8512 12.571 82.8463 12.55C82.8413 12.529 82.8288 12.5107 82.811 12.4985C82.7933 12.4863 82.7717 12.4811 82.7503 12.484C82.729 12.4868 82.7095 12.4975 82.6956 12.514L81.8348 13.7662C81.7133 13.6155 81.6334 13.4538 81.5961 13.2876C81.5553 13.1071 81.569 12.9185 81.6354 12.7457C81.8264 12.2412 82.425 11.8802 83.2371 11.7792C83.2579 11.7769 83.2787 11.7821 83.2959 11.7939C83.3131 11.8058 83.3254 11.8234 83.3307 11.8436C83.5264 12.6382 83.4031 13.3262 83.0001 13.6849ZM81.8779 13.817C81.8629 13.8002 81.8488 13.7832 81.8348 13.7662L81.6655 14.0108C81.6526 14.0297 81.6477 14.0529 81.6519 14.0754C81.656 14.0979 81.6689 14.1178 81.6877 14.1309C81.7066 14.1435 81.7298 14.1482 81.7522 14.144C81.7746 14.1399 81.7945 14.1272 81.8077 14.1087L81.9757 13.8632L81.9129 13.841C81.8996 13.8356 81.8877 13.8274 81.8779 13.817Z" fill="#64B930"/>
</g>
<g clip-path="url(#clip35_323_2311)">
<path d="M73.9747 11.6792C73.846 11.7948 73.6876 11.8723 73.5173 11.903L73.4826 11.9094C73.314 11.934 73.1345 11.9171 72.9504 11.8575L73.8124 10.6062C73.8228 10.5873 73.8258 10.5653 73.8209 10.5443C73.816 10.5234 73.8034 10.505 73.7857 10.4928C73.7679 10.4806 73.7463 10.4754 73.7249 10.4783C73.7036 10.4812 73.6841 10.4919 73.6702 10.5083L72.8094 11.7605C72.6879 11.6098 72.608 11.4482 72.5708 11.2819C72.5299 11.1014 72.5436 10.9128 72.61 10.7401C72.801 10.2355 73.3996 9.87452 74.2117 9.77351C74.2325 9.7712 74.2533 9.77644 74.2705 9.78826C74.2877 9.80009 74.3 9.81771 74.3053 9.8379C74.5011 10.6325 74.3777 11.3206 73.9747 11.6792ZM72.8525 11.8113C72.8375 11.7945 72.8234 11.7775 72.8094 11.7605L72.6401 12.0052C72.6272 12.0241 72.6223 12.0473 72.6265 12.0697C72.6306 12.0922 72.6435 12.1121 72.6623 12.1252C72.6812 12.1378 72.7044 12.1425 72.7268 12.1384C72.7492 12.1342 72.7691 12.1216 72.7823 12.103L72.9504 11.8575L72.8875 11.8353C72.8742 11.8299 72.8623 11.8217 72.8525 11.8113Z" fill="#64B930"/>
</g>
<g clip-path="url(#clip36_323_2311)">
<path d="M85.3401 12.3477C85.2114 12.4634 85.0531 12.5409 84.8828 12.5716L84.8481 12.578C84.6795 12.6026 84.5 12.5857 84.3158 12.526L85.1779 11.2747C85.1883 11.2559 85.1913 11.2338 85.1864 11.2129C85.1814 11.1919 85.1689 11.1735 85.1511 11.1613C85.1334 11.1491 85.1118 11.144 85.0904 11.1468C85.0691 11.1497 85.0496 11.1604 85.0357 11.1769L84.1749 12.429C84.0534 12.2783 83.9735 12.1167 83.9362 11.9505C83.8954 11.7699 83.9091 11.5814 83.9755 11.4086C84.1665 10.904 84.7651 10.5431 85.5772 10.4421C85.5979 10.4397 85.6188 10.445 85.636 10.4568C85.6532 10.4686 85.6655 10.4862 85.6708 10.5064C85.8665 11.301 85.7432 11.9891 85.3401 12.3477ZM84.218 12.4799C84.2029 12.463 84.1889 12.446 84.1749 12.429L84.0056 12.6737C83.9927 12.6926 83.9878 12.7158 83.992 12.7383C83.9961 12.7608 84.009 12.7807 84.0277 12.7937C84.0467 12.8063 84.0698 12.8111 84.0922 12.8069C84.1146 12.8028 84.1346 12.7901 84.1478 12.7716L84.3158 12.526L84.2529 12.5039C84.2397 12.4985 84.2278 12.4903 84.218 12.4799Z" fill="#64B930"/>
</g>
<g clip-path="url(#clip37_323_2311)">
<path d="M76.6487 9.67352C76.52 9.78915 76.3617 9.86666 76.1914 9.89736L76.1567 9.90377C75.9881 9.92838 75.8086 9.91145 75.6244 9.85182L76.4865 8.60051C76.4969 8.58166 76.4999 8.55962 76.495 8.53866C76.49 8.51771 76.4775 8.49934 76.4597 8.48714C76.442 8.47493 76.4204 8.46976 76.399 8.47263C76.3777 8.47549 76.3582 8.48619 76.3443 8.50265L75.4835 9.75482C75.362 9.60413 75.2821 9.44251 75.2448 9.27626C75.204 9.09573 75.2177 8.90714 75.2841 8.7344C75.4751 8.22984 76.0737 7.86885 76.8858 7.76785C76.9065 7.76553 76.9274 7.77077 76.9446 7.7826C76.9618 7.79442 76.9741 7.81204 76.9794 7.83223C77.1751 8.62684 77.0518 9.31489 76.6487 9.67352ZM75.5266 9.80565C75.5115 9.78883 75.4975 9.77182 75.4835 9.75482L75.3142 9.9995C75.3013 10.0184 75.2964 10.0416 75.3006 10.0641C75.3047 10.0865 75.3176 10.1065 75.3363 10.1195C75.3553 10.1321 75.3784 10.1368 75.4008 10.1327C75.4232 10.1286 75.4431 10.1159 75.4564 10.0974L75.6244 9.85182L75.5615 9.82968C75.5483 9.82427 75.5364 9.81607 75.5266 9.80565Z" fill="#64B930"/>
</g>
<g clip-path="url(#clip38_323_2311)">
<path d="M60.4516 5.87683C60.5002 5.98437 60.5179 6.10333 60.5027 6.22037L60.4998 6.24429C60.481 6.35898 60.4329 6.47221 60.3562 6.57963L59.7204 5.76097C59.7103 5.75031 59.6966 5.74379 59.6819 5.74269C59.6673 5.74158 59.6528 5.74596 59.6412 5.75497C59.6296 5.76399 59.6217 5.77699 59.6192 5.79146C59.6167 5.80592 59.6196 5.82081 59.6274 5.83324L60.264 6.65127C60.141 6.69916 60.0194 6.71779 59.9036 6.70771C59.7778 6.69702 59.658 6.64923 59.5594 6.57038C59.2707 6.3421 59.1595 5.87842 59.2614 5.32954C59.2642 5.31559 59.2719 5.3031 59.2831 5.29437C59.2943 5.28563 59.3083 5.28124 59.3225 5.28199C59.8796 5.31864 60.3015 5.54079 60.4516 5.87683ZM60.306 6.6337C60.2919 6.64004 60.278 6.64565 60.264 6.65127L60.3882 6.81183C60.3978 6.82409 60.4119 6.83206 60.4274 6.834C60.4428 6.83593 60.4584 6.83169 60.4708 6.82218C60.4829 6.81244 60.4908 6.79837 60.4927 6.78296C60.4946 6.76754 60.4905 6.75198 60.4812 6.73956L60.3562 6.57963L60.3288 6.61595C60.3226 6.62344 60.3148 6.62949 60.306 6.6337Z" fill="#64B930"/>
</g>
<g clip-path="url(#clip39_323_2311)">
<path d="M60.6287 7.66457C60.7027 7.8283 60.7297 8.00941 60.7066 8.18762L60.7021 8.22403C60.6735 8.39865 60.6003 8.57104 60.4834 8.7346L59.5155 7.48816C59.5001 7.47193 59.4792 7.46201 59.4569 7.46033C59.4346 7.45864 59.4125 7.46531 59.3948 7.47903C59.3772 7.49276 59.3653 7.51256 59.3614 7.53458C59.3575 7.55661 59.362 7.57928 59.3739 7.59819L60.3431 8.84367C60.1558 8.91659 59.9707 8.94496 59.7944 8.92961C59.6029 8.91334 59.4205 8.84056 59.2703 8.72051C58.8308 8.37296 58.6615 7.66699 58.8166 6.8313C58.8208 6.81005 58.8326 6.79104 58.8497 6.77774C58.8668 6.76445 58.8881 6.75776 58.9097 6.75891C59.7578 6.8147 60.4002 7.15293 60.6287 7.66457ZM60.407 8.81693C60.3856 8.82658 60.3644 8.83512 60.3431 8.84367L60.5322 9.08813C60.5468 9.1068 60.5683 9.11893 60.5918 9.12188C60.6154 9.12483 60.6392 9.11837 60.658 9.10389C60.6764 9.08906 60.6884 9.06765 60.6913 9.04418C60.6942 9.02071 60.6879 8.99701 60.6737 8.9781L60.4834 8.7346L60.4418 8.7899C60.4323 8.8013 60.4204 8.81052 60.407 8.81693Z" fill="#64B930"/>
</g>
<g clip-path="url(#clip40_323_2311)">
<path d="M66.98 6.32749C67.054 6.49122 67.081 6.67233 67.0579 6.85054L67.0534 6.88695C67.0248 7.06157 66.9516 7.23396 66.8348 7.39752L65.8668 6.15108C65.8514 6.13485 65.8305 6.12493 65.8082 6.12325C65.7859 6.12156 65.7638 6.12823 65.7462 6.14195C65.7285 6.15568 65.7166 6.17548 65.7127 6.1975C65.7089 6.21953 65.7133 6.2422 65.7252 6.26111L66.6945 7.50659C66.5071 7.57951 66.322 7.60788 66.1458 7.59253C65.9542 7.57626 65.7718 7.50348 65.6217 7.38343C65.1822 7.03588 65.0128 6.32991 65.1679 5.49422C65.1721 5.47297 65.1839 5.45396 65.201 5.44066C65.2181 5.42737 65.2394 5.42068 65.261 5.42183C66.1092 5.47762 66.7516 5.81585 66.98 6.32749ZM66.7583 7.47985C66.737 7.4895 66.7157 7.49804 66.6945 7.50659L66.8835 7.75105C66.8982 7.76972 66.9196 7.78185 66.9432 7.7848C66.9667 7.78775 66.9905 7.78129 67.0093 7.76681C67.0277 7.75198 67.0397 7.73057 67.0426 7.7071C67.0455 7.68363 67.0393 7.65993 67.0251 7.64102L66.8348 7.39752L66.7931 7.45282C66.7836 7.46422 66.7717 7.47344 66.7583 7.47985Z" fill="#64B930"/>
</g>
<g clip-path="url(#clip41_323_2311)">
<path d="M93.1266 27.56C93.1271 27.6964 93.0902 27.8261 93.0277 27.9448C92.9261 28.1377 92.7625 28.3074 92.5843 28.4698C92.228 28.7945 91.8122 29.0984 91.68 29.4045C91.556 29.6919 91.5602 29.9353 91.6386 30.1263C91.6724 30.2085 91.7205 30.2815 91.7797 30.3441C92.3414 30.044 92.8346 29.452 92.9424 28.8411C92.9646 29.4733 92.6587 30.1106 92.0761 30.5339L91.9944 30.5023C92.0181 30.5141 92.0424 30.5247 92.0671 30.5342C92.4566 30.6842 93.0002 30.5662 93.3617 29.9863C93.5278 29.7199 93.6726 29.2607 93.6483 28.7775C93.6273 28.3594 93.4843 27.9244 93.1266 27.56L93.1266 27.56ZM93.8878 30.5975C93.8057 30.6741 93.7077 30.7274 93.602 30.7602C93.4172 30.8175 93.2096 30.8214 92.9978 30.8116C92.5743 30.792 92.1285 30.7238 91.8613 30.8299C91.6083 30.9304 91.4627 31.0818 91.394 31.2461C91.3646 31.3164 91.3486 31.3916 91.3469 31.4679C91.8797 31.6262 92.5469 31.5635 92.9899 31.2534C92.6132 31.6575 92.0321 31.8629 91.4115 31.7675C91.5618 32.0923 91.9636 32.3471 92.5372 32.214C92.8029 32.1523 93.1763 31.9581 93.4594 31.6449C93.6997 31.3791 93.8774 31.0312 93.8878 30.5975L93.8878 30.5975ZM90.548 28.4082C90.1938 28.6587 90.0038 29.0003 89.9171 29.3481C89.815 29.7576 89.862 30.1759 89.959 30.4309C90.1682 30.9812 90.6037 31.1723 90.9571 31.116C90.532 30.6541 90.3785 30.0573 90.5041 29.5194C90.4935 30.06 90.8135 30.6487 91.242 31.0027C91.3044 30.9588 91.3579 30.9037 91.3999 30.8401C91.4981 30.6914 91.5424 30.4859 91.4847 30.2198C91.4239 29.939 91.1187 29.6071 90.8663 29.2665C90.7401 29.0962 90.6275 28.9218 90.5721 28.7365C90.5404 28.6304 90.5303 28.5192 90.548 28.4083L90.548 28.4082Z" fill="#64B930"/>
<g clip-path="url(#clip42_323_2311)">
<path d="M92.0944 28.3149C92.0139 28.3872 91.9149 28.4356 91.8084 28.4548L91.7867 28.4588C91.6813 28.4742 91.5691 28.4636 91.454 28.4264L91.9929 27.644C91.9994 27.6323 92.0013 27.6185 91.9982 27.6054C91.9952 27.5923 91.9873 27.5808 91.9762 27.5732C91.9651 27.5655 91.9516 27.5623 91.9382 27.5641C91.9249 27.5659 91.9127 27.5726 91.904 27.5829L91.3658 28.3657C91.2899 28.2715 91.2399 28.1705 91.2166 28.0665C91.1911 27.9537 91.1997 27.8357 91.2412 27.7277C91.3606 27.4123 91.7349 27.1866 92.2426 27.1235C92.2556 27.122 92.2686 27.1253 92.2793 27.1327C92.2901 27.1401 92.2978 27.1511 92.3011 27.1637C92.4235 27.6605 92.3464 28.0907 92.0944 28.3149ZM91.3928 28.3975C91.3834 28.387 91.3746 28.3764 91.3658 28.3657L91.26 28.5187C91.252 28.5305 91.2489 28.545 91.2515 28.5591C91.2541 28.5731 91.2621 28.5856 91.2739 28.5937C91.2857 28.6016 91.3002 28.6046 91.3142 28.602C91.3282 28.5994 91.3406 28.5915 91.3489 28.5799L91.454 28.4264L91.4147 28.4125C91.4064 28.4091 91.3989 28.404 91.3928 28.3975Z" fill="#64B930"/>
</g>
</g>
<g clip-path="url(#clip43_323_2311)">
<path d="M93.2154 23.1154C93.2157 23.2006 93.1927 23.2815 93.1537 23.3556C93.0903 23.4759 92.9882 23.5818 92.8771 23.6831C92.6547 23.8858 92.3953 24.0754 92.3128 24.2664C92.2354 24.4457 92.238 24.5976 92.287 24.7168C92.308 24.7681 92.338 24.8137 92.375 24.8527C92.7255 24.6654 93.0332 24.296 93.1005 23.9149C93.1144 24.3093 92.9234 24.707 92.56 24.9711L92.509 24.9514C92.5238 24.9588 92.5389 24.9654 92.5543 24.9713C92.7973 25.0649 93.1366 24.9913 93.3622 24.6295C93.4658 24.4632 93.5561 24.1767 93.541 23.8751C93.5279 23.6143 93.4386 23.3428 93.2154 23.1154L93.2154 23.1154ZM93.6904 25.0108C93.6392 25.0586 93.578 25.0919 93.5121 25.1123C93.3968 25.1481 93.2672 25.1505 93.1351 25.1444C92.8708 25.1322 92.5926 25.0896 92.4259 25.1558C92.268 25.2186 92.1772 25.313 92.1343 25.4156C92.116 25.4594 92.106 25.5064 92.1049 25.5539C92.4374 25.6527 92.8537 25.6136 93.1301 25.4201C92.8951 25.6722 92.5325 25.8004 92.1453 25.7409C92.239 25.9435 92.4897 26.1026 92.8476 26.0195C93.0135 25.981 93.2464 25.8598 93.4231 25.6644C93.5731 25.4985 93.6839 25.2815 93.6904 25.0108L93.6904 25.0108ZM91.6064 23.6448C91.3854 23.8011 91.2668 24.0142 91.2127 24.2312C91.149 24.4868 91.1784 24.7478 91.2389 24.9069C91.3694 25.2502 91.6412 25.3695 91.8617 25.3343C91.5964 25.0461 91.5007 24.6737 91.579 24.3381C91.5724 24.6754 91.7721 25.0428 92.0395 25.2637C92.0784 25.2363 92.1118 25.2019 92.138 25.1622C92.1993 25.0694 92.2269 24.9412 92.1909 24.7751C92.1529 24.5999 91.9625 24.3928 91.805 24.1803C91.7263 24.074 91.656 23.9652 91.6215 23.8496C91.6017 23.7834 91.5954 23.714 91.6064 23.6448L91.6064 23.6448Z" fill="#64B930"/>
<g clip-path="url(#clip44_323_2311)">
<path d="M92.5715 23.5865C92.5213 23.6316 92.4595 23.6619 92.3931 23.6738L92.3795 23.6763C92.3137 23.6859 92.2437 23.6793 92.1719 23.6561L92.5082 23.1679C92.5122 23.1606 92.5134 23.152 92.5115 23.1438C92.5096 23.1356 92.5047 23.1284 92.4977 23.1237C92.4908 23.1189 92.4824 23.1169 92.4741 23.118C92.4657 23.1191 92.4581 23.1233 92.4527 23.1297L92.1169 23.6182C92.0695 23.5594 92.0383 23.4964 92.0238 23.4315C92.0079 23.3611 92.0132 23.2875 92.0391 23.2201C92.1136 23.0233 92.3471 22.8825 92.664 22.8431C92.6721 22.8422 92.6802 22.8442 92.6869 22.8488C92.6936 22.8534 92.6984 22.8603 92.7005 22.8682C92.7768 23.1782 92.7287 23.4466 92.5715 23.5865ZM92.1337 23.638C92.1278 23.6315 92.1224 23.6249 92.1169 23.6182L92.0508 23.7137C92.0458 23.721 92.0439 23.7301 92.0455 23.7389C92.0472 23.7476 92.0522 23.7554 92.0595 23.7605C92.0669 23.7654 92.0759 23.7673 92.0847 23.7656C92.0934 23.764 92.1012 23.7591 92.1063 23.7519L92.1719 23.6561L92.1473 23.6474C92.1422 23.6453 92.1375 23.6421 92.1337 23.638Z" fill="#64B930"/>
</g>
</g>
<g clip-path="url(#clip45_323_2311)">
<path d="M51.8092 0.692782C51.899 0.849785 51.9412 1.0233 51.9468 1.20106C51.9558 1.4898 51.8782 1.79227 51.779 2.09593C51.5805 2.70326 51.2999 3.32527 51.3477 3.76453C51.3926 4.17683 51.5566 4.45466 51.7719 4.62358C51.8645 4.69626 51.9677 4.74895 52.0769 4.78237C52.5282 4.06924 52.7095 3.06446 52.4345 2.28992C52.8734 3.00401 52.9373 3.9386 52.5426 4.80736L52.4277 4.82434C52.4628 4.82242 52.4977 4.81884 52.5325 4.81359C53.0794 4.73193 53.6289 4.24052 53.6665 3.33576C53.6837 2.92006 53.5504 2.29613 53.2065 1.75502C52.909 1.28693 52.4597 0.878976 51.8092 0.692803L51.8092 0.692782ZM54.6724 3.69627C54.6277 3.83827 54.5497 3.96377 54.4493 4.07067C54.2738 4.2575 54.037 4.39777 53.7865 4.52491C53.2856 4.77916 52.7271 4.99204 52.4886 5.28896C52.2626 5.57024 52.1938 5.83983 52.222 6.07419C52.2341 6.17447 52.2648 6.27161 52.3127 6.36057C53.0303 6.19471 53.7584 5.68635 54.0661 5.03929C53.8962 5.75131 53.3607 6.36795 52.583 6.66369C52.9686 6.9398 53.5983 6.97087 54.1724 6.44245C54.4383 6.19761 54.7417 5.72968 54.8633 5.18366C54.9666 4.72016 54.9439 4.20303 54.6724 3.69631L54.6724 3.69627ZM49.3917 3.35625C49.1471 3.87659 49.1514 4.39451 49.2788 4.85198C49.4289 5.39081 49.7566 5.84223 50.035 6.0727C50.6359 6.57015 51.2628 6.50577 51.6334 6.20979C50.8414 5.95536 50.2743 5.36778 50.0674 4.66574C50.4087 5.29575 51.1623 5.76515 51.8877 5.89298C51.9309 5.80168 51.9565 5.70309 51.9634 5.60233C51.9793 5.3668 51.896 5.10092 51.6556 4.83194C51.4019 4.54803 50.8332 4.36498 50.3196 4.13742C50.0628 4.02367 49.819 3.89626 49.634 3.7189C49.5281 3.61738 49.4438 3.4958 49.3917 3.35627L49.3917 3.35625Z" fill="#64B930"/>
<g clip-path="url(#clip46_323_2311)">
<path d="M50.9092 2.98799C50.7805 3.10362 50.6222 3.18113 50.4519 3.21183L50.4172 3.21824C50.2486 3.24285 50.0691 3.22592 49.8849 3.16629L50.747 1.91498C50.7574 1.89613 50.7604 1.87409 50.7555 1.85313C50.7505 1.83218 50.738 1.81381 50.7202 1.80161C50.7025 1.7894 50.6809 1.78423 50.6595 1.7871C50.6382 1.78996 50.6187 1.80066 50.6048 1.81712L49.744 3.06929C49.6225 2.9186 49.5426 2.75698 49.5053 2.59073C49.4645 2.4102 49.4782 2.22162 49.5446 2.04887C49.7356 1.54431 50.3342 1.18332 51.1463 1.08232C51.167 1.08 51.1879 1.08524 51.2051 1.09707C51.2223 1.10889 51.2346 1.12651 51.2399 1.1467C51.4356 1.94131 51.3123 2.62936 50.9092 2.98799ZM49.7871 3.12012C49.772 3.1033 49.758 3.0863 49.744 3.06929L49.5747 3.31397C49.5618 3.33286 49.5569 3.35607 49.5611 3.37854C49.5652 3.40102 49.5781 3.42095 49.5968 3.434C49.6158 3.44659 49.6389 3.45132 49.6613 3.44718C49.6837 3.44305 49.7036 3.43037 49.7169 3.41183L49.8849 3.16629L49.822 3.14415C49.8088 3.13874 49.7969 3.13054 49.7871 3.12012Z" fill="#64B930"/>
</g>
</g>
<g clip-path="url(#clip47_323_2311)">
<path d="M68.767 5.78293C68.877 5.92644 68.9422 6.09269 68.9717 6.26808C69.0194 6.55299 68.9832 6.86315 68.9258 7.1774C68.8109 7.80591 68.6165 8.46001 68.723 8.88884C68.823 9.29135 69.0228 9.5446 69.2589 9.68301C69.3604 9.74257 69.4698 9.78089 69.5825 9.79931C69.9337 9.03194 69.9782 8.0119 69.6014 7.28141C70.1324 7.92995 70.3216 8.84743 70.0473 9.7614L69.9358 9.79369C69.9703 9.78707 70.0044 9.77882 70.0381 9.76894C70.5691 9.61443 71.0474 9.05356 70.9629 8.15196C70.9241 7.73772 70.708 7.13741 70.2945 6.6475C69.9367 6.22369 69.4366 5.8799 68.767 5.78296L68.767 5.78293ZM72.0083 8.37384C71.9831 8.52055 71.9226 8.65541 71.8375 8.77485C71.6888 8.9836 71.473 9.15446 71.2419 9.31415C70.7798 9.63349 70.255 9.91958 70.0586 10.2459C69.8725 10.555 69.8406 10.8314 69.9002 11.0598C69.9256 11.1576 69.9691 11.2497 70.0285 11.3314C70.7173 11.0705 71.3703 10.4688 71.5882 9.78622C71.5157 10.5146 71.068 11.1977 70.3372 11.5954C70.7564 11.8171 71.3845 11.7632 71.8823 11.1623C72.1129 10.8839 72.3505 10.3794 72.3976 9.82201C72.4375 9.34883 72.3454 8.83946 72.0083 8.37388L72.0083 8.37384ZM66.7298 8.74749C66.5575 9.29601 66.6314 9.80864 66.8192 10.2448C67.0404 10.7585 67.4259 11.1618 67.7328 11.3527C68.3952 11.7647 69.0077 11.6166 69.3351 11.2734C68.516 11.1279 67.8751 10.622 67.5756 9.95415C67.9985 10.5325 68.8085 10.8962 69.5444 10.9253C69.5749 10.829 69.5871 10.7279 69.5803 10.6271C69.5645 10.3916 69.4461 10.1393 69.1717 9.90512C68.8821 9.65794 68.2939 9.55308 67.7544 9.39669C67.4846 9.31853 67.2259 9.22508 67.0187 9.07424C66.9001 8.98789 66.8002 8.87876 66.7298 8.74751L66.7298 8.74749Z" fill="#64B930"/>
<g clip-path="url(#clip48_323_2311)">
<path d="M68.5058 7.80141C68.4253 7.8737 68.3263 7.92216 68.2198 7.94135L68.1981 7.94537C68.0927 7.96075 67.9805 7.95016 67.8654 7.91288L68.4043 7.13056C68.4108 7.11878 68.4127 7.105 68.4096 7.09189C68.4065 7.07879 68.3987 7.06731 68.3876 7.05968C68.3765 7.05205 68.363 7.04882 68.3496 7.05061C68.3363 7.0524 68.3241 7.05909 68.3154 7.06938L67.7772 7.85224C67.7013 7.75803 67.6513 7.65698 67.628 7.55304C67.6025 7.44018 67.611 7.32227 67.6526 7.21427C67.772 6.89882 68.1462 6.67312 68.654 6.60998C68.6669 6.60853 68.68 6.61181 68.6907 6.6192C68.7015 6.62659 68.7092 6.63761 68.7125 6.65023C68.8349 7.14702 68.7577 7.57719 68.5058 7.80141ZM67.8042 7.88402C67.7948 7.8735 67.786 7.86287 67.7772 7.85224L67.6714 8.00521C67.6633 8.01702 67.6603 8.03153 67.6629 8.04559C67.6655 8.05964 67.6735 8.0721 67.6852 8.08026C67.6971 8.08813 67.7116 8.09109 67.7256 8.0885C67.7396 8.08591 67.752 8.07799 67.7603 8.0664L67.8654 7.91288L67.826 7.89904C67.8178 7.89566 67.8103 7.89053 67.8042 7.88402Z" fill="#64B930"/>
</g>
</g>
<g clip-path="url(#clip49_323_2311)">
<path d="M87.233 12.5968C87.228 12.7775 87.1739 12.9477 87.0862 13.1024C86.9437 13.3537 86.7201 13.5718 86.4775 13.7796C85.9922 14.1952 85.4291 14.5806 85.2415 14.9806C85.0655 15.3561 85.0611 15.6787 85.1572 15.935C85.1985 16.0452 85.2592 16.1439 85.3351 16.2292C86.0914 15.8547 86.7688 15.0907 86.9366 14.2861C86.9402 15.1243 86.5088 15.9558 85.72 16.4927L85.613 16.4475C85.6439 16.4641 85.6756 16.4792 85.708 16.4927C86.2177 16.7074 86.9425 16.5733 87.4451 15.82C87.676 15.4739 87.8865 14.8716 87.8742 14.2306C87.8634 13.6761 87.6918 13.094 87.2329 12.5968L87.233 12.5968ZM88.1169 16.6511C88.0049 16.7491 87.873 16.8157 87.7317 16.8548C87.4846 16.9232 87.2094 16.9199 86.9293 16.8982C86.3692 16.8549 85.7815 16.7464 85.4234 16.876C85.0841 16.9987 84.8851 17.1932 84.7874 17.4081C84.7455 17.5 84.7213 17.599 84.7159 17.6999C85.4151 17.9313 86.3014 17.8757 86.9007 17.483C86.3854 18.0028 85.6073 18.2511 84.7892 18.0994C84.975 18.5357 85.4967 18.8896 86.2618 18.7368C86.6163 18.6659 87.1188 18.424 87.5066 18.0208C87.8358 17.6786 88.0853 17.2251 88.1169 16.6511L88.1169 16.6511ZM83.783 13.6148C83.3035 13.9321 83.0379 14.3767 82.9089 14.8337C82.7569 15.372 82.802 15.928 82.92 16.2696C83.1747 17.007 83.7436 17.278 84.2141 17.2179C83.6698 16.5887 83.491 15.792 83.6793 15.0847C83.6432 15.8003 84.0429 16.5931 84.596 17.0795C84.6804 17.0239 84.7536 16.9531 84.8118 16.8706C84.9479 16.6777 85.015 16.4072 84.9495 16.0525C84.8804 15.678 84.4898 15.226 84.1694 14.7645C84.0092 14.5339 83.8672 14.2983 83.8014 14.0506C83.7637 13.9088 83.7549 13.7611 83.783 13.6148L83.783 13.6148Z" fill="#64B930"/>
<g clip-path="url(#clip50_323_2311)">
<path d="M89.0751 16.3367C88.9946 16.409 88.8956 16.4575 88.7892 16.4766L88.7674 16.4807C88.662 16.496 88.5498 16.4855 88.4347 16.4482L88.9736 15.6658C88.9802 15.6541 88.982 15.6403 88.979 15.6272C88.9759 15.6141 88.968 15.6026 88.9569 15.595C88.9458 15.5873 88.9323 15.5841 88.919 15.5859C88.9056 15.5877 88.8934 15.5944 88.8847 15.6047L88.3466 16.3875C88.2706 16.2933 88.2206 16.1923 88.1974 16.0883C88.1718 15.9755 88.1804 15.8576 88.2219 15.7496C88.3413 15.4341 88.7156 15.2084 89.2233 15.1453C89.2363 15.1438 89.2493 15.1471 89.2601 15.1545C89.2708 15.1619 89.2785 15.1729 89.2818 15.1855C89.4042 15.6823 89.3271 16.1125 89.0751 16.3367ZM88.3735 16.4193C88.3641 16.4088 88.3553 16.3982 88.3466 16.3875L88.2407 16.5405C88.2327 16.5523 88.2296 16.5668 88.2322 16.5809C88.2348 16.5949 88.2428 16.6074 88.2546 16.6155C88.2664 16.6234 88.2809 16.6264 88.2949 16.6238C88.3089 16.6212 88.3213 16.6133 88.3296 16.6017L88.4347 16.4482L88.3954 16.4343C88.3871 16.4309 88.3796 16.4258 88.3735 16.4193Z" fill="#64B930"/>
</g>
<g clip-path="url(#clip51_323_2311)">
<path d="M85.5538 14.1527C85.4734 14.225 85.3744 14.2734 85.2679 14.2926L85.2462 14.2966C85.1408 14.312 85.0286 14.3014 84.9134 14.2641L85.4524 13.4818C85.4589 13.47 85.4608 13.4563 85.4577 13.4432C85.4546 13.4301 85.4468 13.4186 85.4357 13.4109C85.4246 13.4033 85.4111 13.4001 85.3977 13.4019C85.3844 13.4037 85.3722 13.4104 85.3635 13.4206L84.8253 14.2035C84.7494 14.1093 84.6994 14.0082 84.6761 13.9043C84.6506 13.7914 84.6591 13.6735 84.7007 13.5655C84.8201 13.2501 85.1943 13.0244 85.7021 12.9612C85.715 12.9598 85.7281 12.9631 85.7388 12.9705C85.7496 12.9779 85.7573 12.9889 85.7606 13.0015C85.8829 13.4983 85.8058 13.9285 85.5538 14.1527ZM84.8523 14.2353C84.8429 14.2248 84.8341 14.2141 84.8253 14.2035L84.7195 14.3565C84.7114 14.3683 84.7084 14.3828 84.711 14.3968C84.7136 14.4109 84.7216 14.4234 84.7333 14.4315C84.7452 14.4394 84.7597 14.4423 84.7737 14.4398C84.7877 14.4372 84.8001 14.4293 84.8084 14.4177L84.9134 14.2641L84.8741 14.2503C84.8659 14.2469 84.8584 14.2418 84.8523 14.2353Z" fill="#64B930"/>
</g>
</g>
<g clip-path="url(#clip52_323_2311)">
<path d="M82.2188 6.57976C82.2138 6.76051 82.1597 6.93071 82.072 7.08543C81.9295 7.33674 81.706 7.55477 81.4634 7.76257C80.978 8.17815 80.415 8.56356 80.2274 8.96363C80.0513 9.33915 80.0469 9.66171 80.143 9.91795C80.1843 10.0282 80.2451 10.1269 80.321 10.2122C81.0772 9.83768 81.7546 9.07372 81.9224 8.26911C81.926 9.10728 81.4947 9.93885 80.7058 10.4757L80.5988 10.4305C80.6298 10.4471 80.6615 10.4622 80.6939 10.4757C81.2035 10.6904 81.9284 10.5563 82.4309 9.80304C82.6618 9.45694 82.8724 8.85464 82.86 8.21364C82.8493 7.65911 82.6776 7.07703 82.2188 6.57976L82.2188 6.57976ZM83.1028 10.6341C82.9908 10.7321 82.8588 10.7987 82.7175 10.8378C82.4704 10.9062 82.1952 10.9029 81.9152 10.8812C81.3551 10.8379 80.7674 10.7294 80.4092 10.859C80.0699 10.9817 79.8709 11.1762 79.7732 11.3911C79.7314 11.483 79.7071 11.582 79.7017 11.6829C80.401 11.9143 81.2872 11.8587 81.8866 11.466C81.3712 11.9858 80.5931 12.2341 79.7751 12.0824C79.9609 12.5187 80.4826 12.8726 81.2477 12.7198C81.6022 12.6489 82.1046 12.407 82.4924 12.0038C82.8216 11.6616 83.0711 11.2081 83.1027 10.6341L83.1028 10.6341ZM78.7688 7.59778C78.2894 7.91508 78.0238 8.35973 77.8947 8.81673C77.7427 9.35503 77.7879 9.911 77.9059 10.2526C78.1605 10.99 78.7294 11.261 79.1999 11.2008C78.6557 10.5717 78.4768 9.77495 78.6651 9.06768C78.6291 9.78328 79.0287 10.5761 79.5819 11.0625C79.6662 11.0069 79.7394 10.9361 79.7976 10.8535C79.9337 10.6607 80.0008 10.3902 79.9353 10.0355C79.8662 9.66102 79.4756 9.20895 79.1553 8.74754C78.9951 8.51686 78.8531 8.28126 78.7873 8.03355C78.7496 7.89175 78.7408 7.74407 78.7688 7.5978L78.7688 7.59778Z" fill="#64B930"/>
<g clip-path="url(#clip53_323_2311)">
<path d="M80.5397 7.80139C80.4592 7.87369 80.3602 7.92215 80.2538 7.94134L80.232 7.94535C80.1266 7.96073 80.0144 7.95015 79.8993 7.91287L80.4382 7.13054C80.4448 7.11876 80.4466 7.10498 80.4436 7.09188C80.4405 7.07878 80.4326 7.06729 80.4215 7.05966C80.4104 7.05203 80.3969 7.0488 80.3836 7.05059C80.3702 7.05238 80.358 7.05907 80.3493 7.06936L79.8112 7.85222C79.7352 7.75801 79.6852 7.65696 79.662 7.55303C79.6364 7.44016 79.645 7.32225 79.6865 7.21425C79.8059 6.8988 80.1802 6.67311 80.6879 6.60996C80.7009 6.60851 80.7139 6.61179 80.7247 6.61918C80.7354 6.62657 80.7431 6.63759 80.7464 6.65021C80.8688 7.14701 80.7917 7.57718 80.5397 7.80139ZM79.8381 7.884C79.8287 7.87349 79.8199 7.86285 79.8112 7.85222L79.7053 8.0052C79.6973 8.01701 79.6942 8.03152 79.6968 8.04557C79.6994 8.05962 79.7074 8.07208 79.7192 8.08024C79.731 8.08811 79.7455 8.09107 79.7595 8.08848C79.7735 8.0859 79.7859 8.07797 79.7942 8.06638L79.8993 7.91287L79.86 7.89903C79.8517 7.89564 79.8442 7.89052 79.8381 7.884Z" fill="#64B930"/>
</g>
</g>
<path d="M0 57.1615H24.2351" stroke="#083049"/>
<path d="M29.2292 60.5042V55.2159H29.8096L32.1963 59.2313H31.9249L34.2929 55.2159H34.8732V60.5042H34.2274V56.2455H34.3397L32.2057 59.8397H31.8968L29.7253 56.2455H29.8751V60.5042H29.2292Z" fill="#083049"/>
<path d="M35.8791 60.5042L38.322 55.2159H38.9866L41.4295 60.5042H40.7556L38.5373 55.581H38.7713L36.5437 60.5042H35.8791ZM36.9087 59.1377L37.1053 58.5948H40.1191L40.3157 59.1377H36.9087Z" fill="#083049"/>
<path d="M42.4371 60.5042V55.2159H44.4869C44.9487 55.2159 45.3418 55.2877 45.6663 55.4312C45.997 55.5747 46.2528 55.7838 46.4338 56.0583C46.6147 56.3266 46.7052 56.6542 46.7052 57.0411C46.7052 57.4155 46.6147 57.74 46.4338 58.0145C46.2528 58.2891 45.997 58.4981 45.6663 58.6416C45.3418 58.7851 44.9487 58.8569 44.4869 58.8569H42.8115L43.111 58.5574V60.5042H42.4371ZM46.0594 60.5042L44.6741 58.5855H45.4135L46.7894 60.5042H46.0594ZM43.111 58.6229L42.849 58.3047H44.4588C44.9705 58.3047 45.3605 58.1955 45.6288 57.9771C45.8971 57.7524 46.0313 57.4404 46.0313 57.0411C46.0313 56.6355 45.8971 56.3235 45.6288 56.1051C45.3605 55.8867 44.9705 55.7775 44.4588 55.7775H42.849L43.111 55.4593V58.6229Z" fill="#083049"/>
<path d="M48.8675 59.2032L48.8394 58.3983L51.9843 55.2159H52.7425L50.3838 57.6682L50.0094 58.0613L48.8675 59.2032ZM48.2778 60.5042V55.2159H48.9518V60.5042H48.2778ZM52.0966 60.5042L49.8503 57.9303L50.2902 57.4342L52.9016 60.5042H52.0966Z" fill="#083049"/>
<path d="M54.543 57.5465H57.3884V58.0987H54.543V57.5465ZM54.6554 59.9426H57.8283V60.5042H53.9815V55.2159H57.716V55.7775H54.6554V59.9426Z" fill="#083049"/>
<path d="M60.2002 60.5042V55.7775H58.3376V55.2159H62.7367V55.7775H60.8741V60.5042H60.2002Z" fill="#083049"/>
<path d="M63.7526 60.5042V55.2159H65.8023C66.2641 55.2159 66.6572 55.2877 66.9817 55.4312C67.3124 55.5747 67.5682 55.7838 67.7492 56.0583C67.9301 56.3266 68.0206 56.6542 68.0206 57.0411C68.0206 57.4217 67.9301 57.7493 67.7492 58.0239C67.5682 58.2984 67.3124 58.5075 66.9817 58.651C66.6572 58.7945 66.2641 58.8663 65.8023 58.8663H64.1269L64.4265 58.5574V60.5042H63.7526ZM64.4265 58.6229L64.1644 58.3047H65.7743C66.2859 58.3047 66.6759 58.1955 66.9442 57.9771C67.2125 57.7524 67.3467 57.4404 67.3467 57.0411C67.3467 56.6355 67.2125 56.3235 66.9442 56.1051C66.6759 55.8867 66.2859 55.7775 65.7743 55.7775H64.1644L64.4265 55.4593V58.6229Z" fill="#083049"/>
<path d="M69.5293 60.5042V55.2159H70.2032V59.9426H73.1515V60.5042H69.5293Z" fill="#083049"/>
<path d="M73.2451 60.5042L75.688 55.2159H76.3526L78.7955 60.5042H78.1216L75.9033 55.581H76.1373L73.9097 60.5042H73.2451ZM74.2747 59.1377L74.4712 58.5948H77.4851L77.6817 59.1377H74.2747Z" fill="#083049"/>
<path d="M82.0048 60.5604C81.4682 60.5604 80.9846 60.4449 80.5541 60.2141C80.1298 59.9769 79.7928 59.6556 79.5432 59.25C79.2999 58.8382 79.1782 58.3733 79.1782 57.8554C79.1782 57.3375 79.2999 56.8757 79.5432 56.4701C79.7928 56.0646 80.1298 55.7432 80.5541 55.5061C80.9846 55.269 81.4682 55.1504 82.0048 55.1504C82.4292 55.1504 82.8098 55.2159 83.1467 55.347C83.4837 55.478 83.7738 55.6746 84.0172 55.9366L83.5866 56.3766C83.3745 56.1582 83.1374 55.999 82.8753 55.8992C82.6132 55.7931 82.3293 55.7401 82.0236 55.7401C81.6117 55.7401 81.2405 55.8337 80.9097 56.0209C80.579 56.2018 80.3201 56.4514 80.1329 56.7697C79.9457 57.0879 79.8521 57.4498 79.8521 57.8554C79.8521 58.261 79.9457 58.626 80.1329 58.9505C80.3201 59.2687 80.579 59.5183 80.9097 59.6993C81.2405 59.8802 81.6117 59.9707 82.0236 59.9707C82.3293 59.9707 82.6132 59.9208 82.8753 59.8209C83.1374 59.7211 83.3745 59.5589 83.5866 59.3342L84.0172 59.7741C83.7738 60.0362 83.4806 60.2328 83.1374 60.3638C82.8004 60.4949 82.4229 60.5604 82.0048 60.5604Z" fill="#083049"/>
<path d="M85.9038 57.5465H88.7491V58.0987H85.9038V57.5465ZM86.0161 59.9426H89.1891V60.5042H85.3422V55.2159H89.0767V55.7775H86.0161V59.9426Z" fill="#083049"/>
<path d="M93.7649 57.1615L118 57.1615" stroke="#083049"/>
<defs>
<clipPath id="clip0_323_2311">
<rect width="4.01133" height="4.01133" fill="white" transform="translate(87.915 25.0708)"/>
</clipPath>
<clipPath id="clip1_323_2311">
<rect width="4.01133" height="4.01133" fill="white" transform="translate(61.1729 6.2442) rotate(-8.04556)"/>
</clipPath>
<clipPath id="clip2_323_2311">
<rect width="4.01133" height="4.01133" fill="white" transform="translate(54.4873 4.34563)"/>
</clipPath>
<clipPath id="clip3_323_2311">
<rect width="2.77996" height="2.77996" fill="white" transform="translate(34.4307 17.647) rotate(-69.536)"/>
</clipPath>
<clipPath id="clip4_323_2311">
<rect width="4.01133" height="4.01133" fill="white" transform="translate(87.5808 18.7196)"/>
</clipPath>
<clipPath id="clip5_323_2311">
<rect width="4.01133" height="4.01133" fill="white" transform="translate(36.7642 12.343) rotate(-33.8335)"/>
</clipPath>
<clipPath id="clip6_323_2311">
<rect width="2.29004" height="2.29004" fill="white" transform="translate(36.7114 10.0744) rotate(-33.8335)"/>
</clipPath>
<clipPath id="clip7_323_2311">
<rect width="2.29004" height="2.29004" fill="white" transform="translate(36.4363 15.3148) rotate(-33.8335)"/>
</clipPath>
<clipPath id="clip8_323_2311">
<rect width="2.29004" height="2.29004" fill="white" transform="translate(39.9385 11.8345) rotate(-59.4088)"/>
</clipPath>
<clipPath id="clip9_323_2311">
<rect width="2.29004" height="2.29004" fill="white" transform="translate(38.3467 9.65969) rotate(-59.4088)"/>
</clipPath>
<clipPath id="clip10_323_2311">
<rect width="1.51846" height="1.51846" fill="white" transform="translate(41.4924 10.7024) rotate(-59.4088)"/>
</clipPath>
<clipPath id="clip11_323_2311">
<rect width="1.51846" height="1.51846" fill="white" transform="translate(39.7791 7.99261) rotate(-59.4088)"/>
</clipPath>
<clipPath id="clip12_323_2311">
<rect width="4.01133" height="4.01133" fill="white" transform="translate(26.6384 25.1085) rotate(-58.4229)"/>
</clipPath>
<clipPath id="clip13_323_2311">
<rect width="4.01133" height="4.01133" fill="white" transform="translate(23.4988 24.1182) rotate(-58.4229)"/>
</clipPath>
<clipPath id="clip14_323_2311">
<rect width="3.73794" height="3.73794" fill="white" transform="translate(31.0725 16.7271) rotate(-86.9692)"/>
</clipPath>
<clipPath id="clip15_323_2311">
<rect width="2.27083" height="2.27083" fill="white" transform="translate(30.5959 24.4078) rotate(-86.9692)"/>
</clipPath>
<clipPath id="clip16_323_2311">
<rect width="1.4404" height="1.4404" fill="white" transform="translate(28.9873 22.0835) rotate(-86.9692)"/>
</clipPath>
<clipPath id="clip17_323_2311">
<rect width="6.28357" height="6.28357" fill="white" transform="translate(21.0596 26.7323) rotate(-33.4488)"/>
</clipPath>
<clipPath id="clip18_323_2311">
<rect width="6.28357" height="6.28357" fill="white" transform="translate(40.1135 4.18905) rotate(-26.9926)"/>
</clipPath>
<clipPath id="clip19_323_2311">
<rect width="2.29004" height="2.29004" fill="white" transform="translate(40.1135 5.64834) rotate(-59.4088)"/>
</clipPath>
<clipPath id="clip20_323_2311">
<rect width="4.1778" height="4.1778" fill="white" transform="translate(33.1628 11.416) rotate(-20.0842)"/>
</clipPath>
<clipPath id="clip21_323_2311">
<rect width="6.28357" height="6.28357" fill="white" transform="translate(28.1772 17.8966) rotate(-33.4488)"/>
</clipPath>
<clipPath id="clip22_323_2311">
<rect width="2.27083" height="2.27083" fill="white" transform="translate(28.7412 19.908) rotate(-86.9692)"/>
</clipPath>
<clipPath id="clip23_323_2311">
<rect width="1.71369" height="1.71369" fill="white" transform="translate(55.4902 3.31978) rotate(-10.4647)"/>
</clipPath>
<clipPath id="clip24_323_2311">
<rect width="1.71369" height="1.71369" fill="white" transform="translate(72.5383 7.99966) rotate(-10.4647)"/>
</clipPath>
<clipPath id="clip25_323_2311">
<rect width="1.71369" height="1.71369" fill="white" transform="translate(71.2012 5.99399) rotate(-10.4647)"/>
</clipPath>
<clipPath id="clip26_323_2311">
<rect width="1.71369" height="1.71369" fill="white" transform="translate(64.8499 7.99966) rotate(-10.4647)"/>
</clipPath>
<clipPath id="clip27_323_2311">
<rect width="1.71369" height="1.71369" fill="white" transform="translate(60.5044 5.99399) rotate(-10.4647)"/>
</clipPath>
<clipPath id="clip28_323_2311">
<rect width="1.71369" height="1.71369" fill="white" transform="translate(46.7991 4.95182) rotate(-48.0638)"/>
</clipPath>
<clipPath id="clip29_323_2311">
<rect width="1.71369" height="1.71369" fill="white" transform="translate(88.5837 17.6937) rotate(-10.4647)"/>
</clipPath>
<clipPath id="clip30_323_2311">
<rect width="1.71369" height="1.71369" fill="white" transform="translate(86.5779 25.7164) rotate(-10.4647)"/>
</clipPath>
<clipPath id="clip31_323_2311">
<rect width="1.71369" height="1.71369" fill="white" transform="translate(90.5894 20.3679) rotate(-10.4647)"/>
</clipPath>
<clipPath id="clip32_323_2311">
<rect width="2.74102" height="2.74102" fill="white" transform="translate(88.918 22.2259) rotate(-10.4647)"/>
</clipPath>
<clipPath id="clip33_323_2311">
<rect width="2.74102" height="2.74102" fill="white" transform="translate(85.9094 18.2145) rotate(-10.4647)"/>
</clipPath>
<clipPath id="clip34_323_2311">
<rect width="2.74102" height="2.74102" fill="white" transform="translate(80.8953 11.8633) rotate(-10.4647)"/>
</clipPath>
<clipPath id="clip35_323_2311">
<rect width="2.74102" height="2.74102" fill="white" transform="translate(71.8699 9.85762) rotate(-10.4647)"/>
</clipPath>
<clipPath id="clip36_323_2311">
<rect width="2.74102" height="2.74102" fill="white" transform="translate(83.2354 10.5262) rotate(-10.4647)"/>
</clipPath>
<clipPath id="clip37_323_2311">
<rect width="2.74102" height="2.74102" fill="white" transform="translate(74.5439 7.85195) rotate(-10.4647)"/>
</clipPath>
<clipPath id="clip38_323_2311">
<rect width="1.86979" height="1.86979" fill="white" transform="translate(58.833 6.86952) rotate(-82.8611)"/>
</clipPath>
<clipPath id="clip39_323_2311">
<rect width="2.84681" height="2.84681" fill="white" transform="translate(58.1643 9.17597) rotate(-82.8611)"/>
</clipPath>
<clipPath id="clip40_323_2311">
<rect width="2.84681" height="2.84681" fill="white" transform="translate(64.5156 7.83889) rotate(-82.8611)"/>
</clipPath>
<clipPath id="clip41_323_2311">
<rect width="4.74193" height="4.74193" fill="white" transform="translate(92.1553 26.4079) rotate(43.0558)"/>
</clipPath>
<clipPath id="clip42_323_2311">
<rect width="1.71369" height="1.71369" fill="white" transform="translate(90.7786 27.176) rotate(-10.4647)"/>
</clipPath>
<clipPath id="clip43_323_2311">
<rect width="2.95889" height="2.95889" fill="white" transform="translate(92.6094 22.3966) rotate(43.0558)"/>
</clipPath>
<clipPath id="clip44_323_2311">
<rect width="1.06932" height="1.06932" fill="white" transform="translate(91.7505 22.8759) rotate(-10.4647)"/>
</clipPath>
<clipPath id="clip45_323_2311">
<rect width="6.28357" height="6.28357" fill="white" transform="translate(49.9365) rotate(13.4948)"/>
</clipPath>
<clipPath id="clip46_323_2311">
<rect width="2.74102" height="2.74102" fill="white" transform="translate(48.8044 1.16642) rotate(-10.4647)"/>
</clipPath>
<clipPath id="clip47_323_2311">
<rect width="6.28357" height="6.28357" fill="white" transform="translate(66.8179 5.34846) rotate(5.76154)"/>
</clipPath>
<clipPath id="clip48_323_2311">
<rect width="1.71369" height="1.71369" fill="white" transform="translate(67.1899 6.66256) rotate(-10.4647)"/>
</clipPath>
<clipPath id="clip49_323_2311">
<rect width="6.28357" height="6.28357" fill="white" transform="translate(85.9934 11.0312) rotate(44.8251)"/>
</clipPath>
<clipPath id="clip50_323_2311">
<rect width="1.71369" height="1.71369" fill="white" transform="translate(87.7593 15.1978) rotate(-10.4647)"/>
</clipPath>
<clipPath id="clip51_323_2311">
<rect width="1.71369" height="1.71369" fill="white" transform="translate(84.238 13.0138) rotate(-10.4647)"/>
</clipPath>
<clipPath id="clip52_323_2311">
<rect width="6.28357" height="6.28357" fill="white" transform="translate(80.9792 5.01417) rotate(44.8251)"/>
</clipPath>
<clipPath id="clip53_323_2311">
<rect width="1.71369" height="1.71369" fill="white" transform="translate(79.2239 6.66254) rotate(-10.4647)"/>
</clipPath>
</defs>
</svg>
