<svg width="92" height="113" viewBox="0 0 92 113" fill="none" xmlns="http://www.w3.org/2000/svg">
<path d="M45.9997 0.309937C49.3375 0.309937 52.6426 0.967358 55.7262 2.24467C58.8099 3.52197 61.6119 5.39415 63.972 7.75431C66.3322 10.1145 68.2043 12.9164 69.4817 16.0001C70.759 19.0838 71.4164 22.3888 71.4164 25.7266V46.0599C71.4164 52.8009 68.7386 59.2657 63.972 64.0322C59.2055 68.7988 52.7406 71.4766 45.9997 71.4766C39.2588 71.4766 32.794 68.7988 28.0274 64.0322C23.2609 59.2657 20.583 52.8009 20.583 46.0599V25.7266C20.583 18.9857 23.2609 12.5209 28.0274 7.75431C32.794 2.98776 39.2588 0.309937 45.9997 0.309937ZM0.529297 51.1433H10.7722C12.0039 59.6059 16.2412 67.3422 22.7091 72.9369C29.1769 78.5315 37.4428 81.6105 45.9946 81.6105C54.5464 81.6105 62.8124 78.5315 69.2802 72.9369C75.748 67.3422 79.9854 59.6059 81.217 51.1433H91.465C90.3093 61.4559 85.6834 71.0697 78.346 78.4079C71.0087 85.7462 61.3955 90.3733 51.083 91.5304V112.143H40.9164V91.5304C30.603 90.3743 20.9886 85.7477 13.6503 78.4094C6.31193 71.071 1.68531 61.4567 0.529297 51.1433Z" fill="white"/>
</svg>
