<svg width="41" height="31" viewBox="0 0 41 31" fill="none" xmlns="http://www.w3.org/2000/svg">
<path d="M9.35275 0.320801C7.05701 0.320486 4.85311 1.22243 3.21627 2.83214C1.57943 4.44185 0.640793 6.63038 0.602749 8.9258C0.37775 11.0883 0.410248 14.2783 1.87275 17.9608C3.36775 21.7258 6.28275 25.8308 11.6027 29.8208C11.8654 30.0178 12.1643 30.1611 12.4823 30.2426C12.8003 30.3241 13.1313 30.3421 13.4563 30.2957C14.1127 30.2019 14.7049 29.8512 15.1028 29.3208C15.5006 28.7904 15.6714 28.1236 15.5776 27.4672C15.4839 26.8109 15.1332 26.2186 14.6028 25.8208C10.6928 22.8883 8.45275 20.0383 7.17025 17.5458C8.37265 17.8546 9.627 17.904 10.85 17.6907C12.0729 17.4774 13.2365 17.0063 14.2634 16.3088C15.2903 15.6112 16.157 14.7031 16.806 13.6448C17.4549 12.5865 17.8712 11.4023 18.0273 10.1707C18.1833 8.93911 18.0755 7.68842 17.711 6.50172C17.3465 5.31501 16.7337 4.21945 15.9132 3.28781C15.0928 2.35617 14.0834 1.60978 12.9523 1.09823C11.8212 0.586674 10.5942 0.321662 9.35275 0.320801ZM31.8528 0.320801C29.557 0.320486 27.3531 1.22243 25.7163 2.83214C24.0794 4.44185 23.1408 6.63038 23.1028 8.9258C22.8778 11.0883 22.9103 14.2783 24.3728 17.9608C25.8653 21.7258 28.7828 25.8308 34.1028 29.8208C34.3654 30.0178 34.6643 30.1611 34.9823 30.2426C35.3003 30.3241 35.6313 30.3421 35.9563 30.2957C36.6127 30.2019 37.2049 29.8512 37.6028 29.3208C38.0006 28.7904 38.1714 28.1236 38.0776 27.4672C37.9839 26.8109 37.6332 26.2186 37.1028 25.8208C33.1928 22.8883 30.9528 20.0383 29.6703 17.5458C30.8727 17.8546 32.127 17.904 33.35 17.6907C34.5729 17.4774 35.7365 17.0063 36.7634 16.3088C37.7903 15.6112 38.657 14.7031 39.306 13.6448C39.9549 12.5865 40.3712 11.4023 40.5273 10.1707C40.6833 8.93911 40.5755 7.68842 40.211 6.50172C39.8465 5.31501 39.2337 4.21945 38.4132 3.28781C37.5928 2.35617 36.5834 1.60978 35.4523 1.09823C34.3212 0.586674 33.0942 0.321662 31.8528 0.320801Z" fill="#083049"/>
</svg>
