<svg width="24" height="25" viewBox="0 0 24 25" fill="none" xmlns="http://www.w3.org/2000/svg">
<path d="M21.71 20.4986L18 16.8186C19.4401 15.023 20.1375 12.7439 19.9488 10.4499C19.7601 8.15585 18.6997 6.02134 16.9855 4.4852C15.2714 2.94906 13.0338 2.12806 10.7329 2.19102C8.43203 2.25398 6.24272 3.19612 4.61514 4.82369C2.98756 6.45127 2.04543 8.64059 1.98247 10.9415C1.91951 13.2424 2.7405 15.4799 4.27664 17.1941C5.81278 18.9082 7.9473 19.9687 10.2413 20.1574C12.5353 20.3461 14.8144 19.6487 16.61 18.2086L20.29 21.8886C20.383 21.9823 20.4936 22.0567 20.6154 22.1074C20.7373 22.1582 20.868 22.1844 21 22.1844C21.132 22.1844 21.2627 22.1582 21.3846 22.1074C21.5064 22.0567 21.617 21.9823 21.71 21.8886C21.8902 21.7021 21.991 21.4529 21.991 21.1936C21.991 20.9342 21.8902 20.685 21.71 20.4986ZM11 18.2086C9.61553 18.2086 8.26215 17.798 7.111 17.0288C5.95986 16.2597 5.06265 15.1664 4.53284 13.8873C4.00303 12.6083 3.8644 11.2008 4.1345 9.84292C4.4046 8.48505 5.07128 7.23777 6.05025 6.25881C7.02922 5.27984 8.2765 4.61315 9.63436 4.34306C10.9922 4.07296 12.3997 4.21158 13.6788 4.7414C14.9579 5.27121 16.0511 6.16842 16.8203 7.31956C17.5895 8.47071 18 9.82408 18 11.2086C18 13.0651 17.2625 14.8455 15.9497 16.1583C14.637 17.4711 12.8565 18.2086 11 18.2086Z" fill="#A6A6A6"/>
</svg>
