<svg width="14" height="9" viewBox="0 0 14 9" fill="none" xmlns="http://www.w3.org/2000/svg">
<path d="M0.75 4.0603C0.473858 4.0603 0.25 4.28416 0.25 4.5603C0.25 4.83645 0.473858 5.0603 0.75 5.0603V4.0603ZM13.6036 4.91386C13.7988 4.71859 13.7988 4.40201 13.6036 4.20675L10.4216 1.02477C10.2263 0.829507 9.90973 0.829507 9.71447 1.02477C9.5192 1.22003 9.5192 1.53661 9.71447 1.73188L12.5429 4.5603L9.71447 7.38873C9.5192 7.58399 9.5192 7.90057 9.71447 8.09584C9.90973 8.2911 10.2263 8.2911 10.4216 8.09584L13.6036 4.91386ZM0.75 5.0603H13.25V4.0603H0.75V5.0603Z" fill="#083049"/>
</svg>
