<svg width="33" height="32" viewBox="0 0 33 32" fill="none" xmlns="http://www.w3.org/2000/svg">
<path d="M15.069 5.46546C15.8538 4.66182 17.1462 4.66182 17.931 5.46546L19.3917 6.96143C19.7738 7.35277 20.2996 7.57053 20.8465 7.56402L22.9372 7.53911C24.0603 7.52574 24.9743 8.43965 24.9609 9.56279L24.936 11.6535C24.9295 12.2004 25.1472 12.7262 25.5386 13.1083L27.0345 14.569C27.8382 15.3538 27.8382 16.6462 27.0345 17.431L25.5386 18.8917C25.1472 19.2738 24.9295 19.7996 24.936 20.3465L24.9609 22.4372C24.9743 23.5603 24.0603 24.4743 22.9372 24.4609L20.8465 24.436C20.2996 24.4295 19.7738 24.6472 19.3917 25.0386L17.931 26.5345C17.1462 27.3382 15.8538 27.3382 15.069 26.5345L13.6083 25.0386C13.2262 24.6472 12.7004 24.4295 12.1535 24.436L10.0628 24.4609C8.93965 24.4743 8.02574 23.5603 8.03911 22.4372L8.06402 20.3465C8.07053 19.7996 7.85277 19.2738 7.46143 18.8917L5.96546 17.431C5.16182 16.6462 5.16182 15.3538 5.96546 14.569L7.46143 13.1083C7.85277 12.7262 8.07053 12.2004 8.06402 11.6535L8.03911 9.56279C8.02574 8.43965 8.93965 7.52574 10.0628 7.53911L12.1535 7.56402C12.7004 7.57053 13.2262 7.35277 13.6083 6.96143L15.069 5.46546Z" stroke="#757575" stroke-width="2"/>
<path d="M12.5 16.0002L15.1667 18.6668L20.5 13.3335" stroke="#757575" stroke-width="2" stroke-linecap="round"/>
</svg>
