<svg width="14" height="8" viewBox="0 0 14 8" fill="none" xmlns="http://www.w3.org/2000/svg">
<path d="M1 3.56036C0.723858 3.56036 0.5 3.78422 0.5 4.06036C0.5 4.33651 0.723858 4.56036 1 4.56036V3.56036ZM13.3536 4.41392C13.5488 4.21866 13.5488 3.90207 13.3536 3.70681L10.1716 0.52483C9.97631 0.329568 9.65973 0.329568 9.46447 0.52483C9.2692 0.720092 9.2692 1.03667 9.46447 1.23194L12.2929 4.06036L9.46447 6.88879C9.2692 7.08405 9.2692 7.40064 9.46447 7.5959C9.65973 7.79116 9.97631 7.79116 10.1716 7.5959L13.3536 4.41392ZM1 4.56036H13V3.56036H1V4.56036Z" fill="white"/>
</svg>
