<svg width="25" height="25" viewBox="0 0 25 25" fill="none" xmlns="http://www.w3.org/2000/svg">
<path d="M10 9.64586V14.9959C10 15.3959 10.175 15.6875 10.525 15.8709C10.875 16.0542 11.2167 16.0375 11.55 15.8209L15.7 13.1709C16.0167 12.9875 16.175 12.7042 16.175 12.3209C16.175 11.9375 16.0167 11.6542 15.7 11.4709L11.55 8.82086C11.2167 8.6042 10.875 8.58753 10.525 8.77086C10.175 8.9542 10 9.24586 10 9.64586ZM12.5 22.3209C11.1167 22.3209 9.81667 22.0582 8.6 21.5329C7.38333 21.0075 6.325 20.2952 5.425 19.3959C4.525 18.4959 3.81267 17.4375 3.288 16.2209C2.76333 15.0042 2.50067 13.7042 2.5 12.3209C2.5 10.9375 2.76267 9.63753 3.288 8.42086C3.81333 7.2042 4.52567 6.14586 5.425 5.24586C6.325 4.34586 7.38333 3.63353 8.6 3.10886C9.81667 2.5842 11.1167 2.32153 12.5 2.32086C13.8833 2.32086 15.1833 2.58353 16.4 3.10886C17.6167 3.6342 18.675 4.34653 19.575 5.24586C20.475 6.14586 21.1877 7.2042 21.713 8.42086C22.2383 9.63753 22.5007 10.9375 22.5 12.3209C22.5 13.7042 22.2373 15.0042 21.712 16.2209C21.1867 17.4375 20.4743 18.4959 19.575 19.3959C18.675 20.2959 17.6167 21.0085 16.4 21.5339C15.1833 22.0592 13.8833 22.3215 12.5 22.3209ZM12.5 20.3209C14.7167 20.3209 16.6043 19.5419 18.163 17.9839C19.7217 16.4259 20.5007 14.5382 20.5 12.3209C20.5 10.1042 19.721 8.21653 18.163 6.65786C16.605 5.0992 14.7173 4.3202 12.5 4.32086C10.2833 4.32086 8.39567 5.09986 6.837 6.65786C5.27833 8.21586 4.49933 10.1035 4.5 12.3209C4.5 14.5375 5.279 16.4252 6.837 17.9839C8.395 19.5425 10.2827 20.3215 12.5 20.3209Z" fill="#083049"/>
</svg>
